<svg xmlns="http://www.w3.org/2000/svg" width="30" height="30" viewBox="0 0 30 30"><defs><style>.a{fill:#fdf4ed;}.b{fill:#f6903c;stroke:#f6903c;stroke-width:1.2px;fill-rule:evenodd;}</style></defs><g transform="translate(-64 -63)"><g transform="translate(64 63)"><rect class="a" width="30" height="30" rx="8" transform="translate(0 0)"/></g><g transform="translate(79 68.808) rotate(45)"><g transform="translate(0)"><path class="b" d="M.333,0a.406.406,0,0,0-.2.7l5.8,5.8-5.8,5.8a.408.408,0,1,0,.571.584l5.809-5.8,5.8,5.8a.408.408,0,1,0,.571-.584L7.08,6.5l5.8-5.8a.408.408,0,0,0-.571-.584l-5.8,5.8L.7.116A.406.406,0,0,0,.41,0,.39.39,0,0,0,.333,0Z" transform="translate(0 0)"/></g></g></g></svg>