<svg xmlns="http://www.w3.org/2000/svg" xmlns:xlink="http://www.w3.org/1999/xlink" width="50" height="50" viewBox="0 0 50 50"><defs><style>.a{fill:#fff;stroke-width:1.2px;}.a,.b{stroke:#f48122;}.b{fill:#313d5c;fill-rule:evenodd;}.c{stroke:none;}.d{fill:none;}.e{filter:url(#a);}</style><filter id="a" x="0" y="0" width="50" height="50" filterUnits="userSpaceOnUse"><feOffset dy="2" input="SourceAlpha"/><feGaussianBlur stdDeviation="3" result="b"/><feFlood flood-color="#7c7c7c" flood-opacity="0.161"/><feComposite operator="in" in2="b"/><feComposite in="SourceGraphic"/></filter></defs><g transform="translate(9 7)"><g class="e" transform="matrix(1, 0, 0, 1, -9, -7)"><g class="a" transform="translate(9 7)"><rect class="c" width="32" height="32" rx="16"/><rect class="d" x="0.6" y="0.6" width="30.8" height="30.8" rx="15.4"/></g></g><g transform="translate(16.192 7) rotate(45)"><g transform="translate(0)"><path class="b" d="M.333,0a.406.406,0,0,0-.2.7l5.8,5.8-5.8,5.8a.408.408,0,1,0,.571.584l5.809-5.8,5.8,5.8a.408.408,0,1,0,.571-.584L7.08,6.5l5.8-5.8a.408.408,0,0,0-.571-.584l-5.8,5.8L.7.116A.406.406,0,0,0,.41,0,.39.39,0,0,0,.333,0Z" transform="translate(0 0)"/></g></g></g></svg>