<svg xmlns="http://www.w3.org/2000/svg" xmlns:xlink="http://www.w3.org/1999/xlink" width="51" height="51" viewBox="0 0 51 51"><defs><style>.a{fill:#fff;}.b{fill:#f6903c;stroke:#f6903c;stroke-width:0.4px;}.c,.d{stroke:none;}.d{fill:#f6903c;}.e{filter:url(#a);}</style><filter id="a" x="0" y="0" width="51" height="51" filterUnits="userSpaceOnUse"><feOffset dy="2" input="SourceAlpha"/><feGaussianBlur stdDeviation="3" result="b"/><feFlood flood-color="#818181" flood-opacity="0.161"/><feComposite operator="in" in2="b"/><feComposite in="SourceGraphic"/></filter></defs><g transform="translate(9 7)"><g class="e" transform="matrix(1, 0, 0, 1, -9, -7)"><g class="a" transform="translate(9 7)"><path class="c" d="M 16.5 32.40000152587891 C 12.25296020507812 32.40000152587891 8.260109901428223 30.7461109161377 5.256999969482422 27.74300003051758 C 2.253890037536621 24.73988914489746 0.6000000238418579 20.74703979492188 0.6000000238418579 16.5 C 0.6000000238418579 12.25296020507812 2.253890037536621 8.260109901428223 5.256999969482422 5.256999969482422 C 8.260109901428223 2.253890037536621 12.25296020507812 0.6000000238418579 16.5 0.6000000238418579 C 20.74703979492188 0.6000000238418579 24.73988914489746 2.253890037536621 27.74300003051758 5.256999969482422 C 30.7461109161377 8.260109901428223 32.40000152587891 12.25296020507812 32.40000152587891 16.5 C 32.40000152587891 20.74703979492188 30.7461109161377 24.73988914489746 27.74300003051758 27.74300003051758 C 24.73988914489746 30.7461109161377 20.74703979492188 32.40000152587891 16.5 32.40000152587891 Z"/><path class="d" d="M 16.5 1.200000762939453 C 12.4132194519043 1.200000762939453 8.571050643920898 2.791479110717773 5.681270599365234 5.681270599365234 C 2.791479110717773 8.571050643920898 1.200000762939453 12.4132194519043 1.200000762939453 16.5 C 1.200000762939453 20.5867805480957 2.791479110717773 24.42895126342773 5.681270599365234 27.31872940063477 C 8.571050643920898 30.20851898193359 12.4132194519043 31.79999923706055 16.5 31.79999923706055 C 20.5867805480957 31.79999923706055 24.42895126342773 30.20851898193359 27.31872940063477 27.31872940063477 C 30.20851898193359 24.42895126342773 31.79999923706055 20.5867805480957 31.79999923706055 16.5 C 31.79999923706055 12.4132194519043 30.20851898193359 8.571050643920898 27.31872940063477 5.681270599365234 C 24.42895126342773 2.791479110717773 20.5867805480957 1.200000762939453 16.5 1.200000762939453 M 16.5 0 C 25.61269950866699 0 33 7.387300491333008 33 16.5 C 33 25.61269950866699 25.61269950866699 33 16.5 33 C 7.387300491333008 33 0 25.61269950866699 0 16.5 C 0 7.387300491333008 7.387300491333008 0 16.5 0 Z"/></g></g><g transform="translate(2 0.8)"><path class="b" d="M20.751,14.8V7.286A2.289,2.289,0,0,0,18.465,5H11.151a1.123,1.123,0,0,0-.765.328L5.3,10.677a1.166,1.166,0,0,0-.3.754v10.3A2.289,2.289,0,0,0,7.286,24.02H16.34A5.385,5.385,0,0,0,20.2,25.637,5.434,5.434,0,0,0,20.751,14.8ZM10.384,6.925V9.911a.754.754,0,0,1-.753.753H6.83Zm-3.1,16A1.189,1.189,0,0,1,6.1,21.734V11.763H9.631a1.854,1.854,0,0,0,1.852-1.852V6.1h6.982a1.189,1.189,0,0,1,1.187,1.187V14.8A5.432,5.432,0,0,0,15.5,22.921H7.286ZM20.2,24.538A4.336,4.336,0,1,1,24.538,20.2,4.341,4.341,0,0,1,20.2,24.538Z"/><path class="b" d="M64.843,62.1H63.261V60.523a.578.578,0,1,0-1.156,0V62.1H60.524a.578.578,0,1,0,0,1.156h1.582v1.582a.578.578,0,1,0,1.156,0V63.26h1.582a.578.578,0,1,0,0-1.156Z" transform="translate(-42.346 -42.763)"/></g></g></svg>