<svg xmlns="http://www.w3.org/2000/svg" width="32" height="31" viewBox="0 0 32 31"><defs><style>.a{fill:#f2f2f2;stroke:#ededed;opacity:0.695;}.b{stroke:none;}.c{fill:none;}</style></defs><g transform="translate(-165 -401)"><g transform="translate(165 401)"><g class="a" transform="translate(0)"><rect class="b" width="32" height="31" rx="15.5"/><rect class="c" x="0.5" y="0.5" width="31" height="30" rx="15"/></g><g transform="translate(27.324 9.696) rotate(90)"><path d="M.194,21.851a.61.61,0,0,0,.433.185.589.589,0,0,0,.433-.185L11.277,11.466a.626.626,0,0,0,0-.881L1.061.2a.607.607,0,0,0-.6-.178A.618.618,0,0,0,.019.469a.63.63,0,0,0,.175.61l9.783,9.947L.194,20.97a.628.628,0,0,0,0,.881Z" transform="translate(0)"/></g></g></g></svg>