<svg xmlns="http://www.w3.org/2000/svg" xmlns:xlink="http://www.w3.org/1999/xlink" width="95" height="95" viewBox="0 0 95 95"><defs><style>.a{fill:#f08e3c;}.b{fill:#fff;}.c{filter:url(#a);}</style><filter id="a" x="0" y="0" width="95" height="95" filterUnits="userSpaceOnUse"><feOffset dy="3" input="SourceAlpha"/><feGaussianBlur stdDeviation="3" result="b"/><feFlood flood-opacity="0.161"/><feComposite operator="in" in2="b"/><feComposite in="SourceGraphic"/></filter></defs><g transform="translate(9 5.734)"><g class="c" transform="matrix(1, 0, 0, 1, -9, -5.73)"><circle class="a" cx="38.5" cy="38.5" r="38.5" transform="translate(9 6)"/></g><g transform="translate(26.511 25.344)"><path class="b" d="M154.792,481.66H144.83a.83.83,0,1,1,0-1.66h9.962a.83.83,0,1,1,0,1.66Z" transform="translate(-136.943 -455.095)"/><path class="b" d="M352.229,159.911l-3.321-7.42a.83.83,0,0,0-1.516,0l-3.321,7.42a.825.825,0,0,0-.071.367c0,.008,0,.016,0,.024v1.245a4.151,4.151,0,0,0,8.3,0V160.3c0-.008,0-.016,0-.024A.824.824,0,0,0,352.229,159.911Zm-4.078-5.048,2.063,4.609h-4.126Z" transform="translate(-326.566 -144.113)"/><path class="b" d="M16.229,159.911l-3.321-7.42a.83.83,0,0,0-1.516,0l-3.321,7.42a.825.825,0,0,0-.071.367c0,.008,0,.016,0,.024v1.245a4.151,4.151,0,0,0,8.3,0V160.3c0-.008,0-.016,0-.024A.825.825,0,0,0,16.229,159.911Zm-4.079-5.048,2.063,4.609H10.088Z" transform="translate(-8 -144.113)"/><path class="b" d="M148.316,7.887h-5.129V5.69a2.906,2.906,0,1,0-1.66,0v2.2H136.4a.259.259,0,0,0-.237.365l.511,1.141a.259.259,0,0,0,.237.153h4.618V22.986a.259.259,0,0,0,.259.259h1.141a.259.259,0,0,0,.259-.259V9.547h4.618a.259.259,0,0,0,.237-.153l.511-1.141A.259.259,0,0,0,148.316,7.887Z" transform="translate(-129.489 0)"/></g></g></svg>