<svg xmlns="http://www.w3.org/2000/svg" width="27.757" height="27.757" viewBox="0 0 27.757 27.757"><defs><style>.a{fill:#fff;}</style></defs><g transform="translate(1.85 0.463)"><rect class="a" width="4.626" height="8.327" transform="translate(0 16.654)"/><rect class="a" width="4.626" height="13.878" transform="translate(12.953 11.103)"/><rect class="a" width="4.626" height="19.43" transform="translate(6.477 5.551)"/><rect class="a" width="4.626" height="24.981" transform="translate(19.43)"/></g><rect class="a" width="27.757" height="0.925" transform="translate(0 26.832)"/><path class="a" d="M30.689,316.453H26.063a.463.463,0,0,1-.463-.463v-8.327a.463.463,0,0,1,.463-.463h4.626a.463.463,0,0,1,.463.463v8.327A.463.463,0,0,1,30.689,316.453Zm-4.164-.925h3.7v-7.4h-3.7Z" transform="translate(-24.212 -290.547)"/><path class="a" d="M269.623,219.6H265a.463.463,0,0,1-.463-.463V205.264A.463.463,0,0,1,265,204.8h4.626a.463.463,0,0,1,.463.463v13.878A.463.463,0,0,1,269.623,219.6Zm-4.164-.925h3.7V205.726h-3.7Z" transform="translate(-250.193 -193.698)"/><path class="a" d="M150.156,122.756H145.53a.463.463,0,0,1-.463-.463v-19.43a.463.463,0,0,1,.463-.463h4.626a.463.463,0,0,1,.463.463v19.43A.463.463,0,0,1,150.156,122.756Zm-4.164-.925h3.7v-18.5h-3.7Z" transform="translate(-137.203 -96.85)"/><path class="a" d="M389.09,25.906h-4.626a.463.463,0,0,1-.463-.463V.463A.463.463,0,0,1,384.464,0h4.626a.463.463,0,0,1,.463.463V25.444A.463.463,0,0,1,389.09,25.906Zm-4.164-.925h3.7V.925h-3.7Z" transform="translate(-363.183 0)"/></svg>