<svg xmlns="http://www.w3.org/2000/svg" width="18.39" height="19.539" viewBox="0 0 18.39 19.539"><defs><style>.a,.b{stroke:#f6903c;stroke-width:0.5px;}.b{fill:#f6903c;}</style></defs><g transform="translate(37.64 -14.999) rotate(90)"><line class="a" x2="19.539" transform="translate(14.999 37.39)"/><path class="b" d="M25.983,53.378H23.3v-7.65a.82.82,0,0,1,.828-.828h1.027a.82.82,0,0,1,.828.828Z" transform="translate(-5.784 -16.988)"/><path class="b" d="M25.712,53.04H22.4V45.059A1.173,1.173,0,0,1,23.559,43.9h1.027a1.173,1.173,0,0,1,1.159,1.159V53.04Zm-2.649-.662h2.02V45.059a.509.509,0,0,0-.5-.5H23.559a.509.509,0,0,0-.5.5Z" transform="translate(-5.182 -16.319)"/><path class="b" d="M62.183,37.059H59.5V21.328a.82.82,0,0,1,.828-.828h1.027a.82.82,0,0,1,.828.828Z" transform="translate(-29.995 -0.669)"/><path class="b" d="M61.912,36.721H58.6V20.659A1.173,1.173,0,0,1,59.759,19.5h1.027a1.173,1.173,0,0,1,1.159,1.159V36.721Zm-2.649-.662h2.02v-15.4a.509.509,0,0,0-.5-.5H59.759a.509.509,0,0,0-.5.5Z" transform="translate(-29.393 0)"/><path class="b" d="M44.083,46.89H41.4V36.028a.82.82,0,0,1,.828-.828h1.027a.82.82,0,0,1,.828.828Z" transform="translate(-17.889 -10.501)"/><path class="b" d="M43.812,46.553H40.5V35.359A1.173,1.173,0,0,1,41.659,34.2h.994a1.173,1.173,0,0,1,1.159,1.159Zm-2.649-.662h2.02V35.359a.509.509,0,0,0-.5-.5H41.659a.509.509,0,0,0-.5.5Z" transform="translate(-17.288 -9.832)"/></g></svg>