<svg xmlns="http://www.w3.org/2000/svg" xmlns:xlink="http://www.w3.org/1999/xlink" width="51" height="51" viewBox="0 0 51 51"><defs><style>.a{fill:#fff;}.b{fill:url(#c);}.c,.d{stroke:none;}.d{fill:#f48122;}.e{filter:url(#a);}</style><filter id="a" x="0" y="0" width="51" height="51" filterUnits="userSpaceOnUse"><feOffset dy="2" input="SourceAlpha"/><feGaussianBlur stdDeviation="3" result="b"/><feFlood flood-color="#818181" flood-opacity="0.161"/><feComposite operator="in" in2="b"/><feComposite in="SourceGraphic"/></filter><linearGradient id="c" x1="0.5" x2="0.5" y2="1" gradientUnits="objectBoundingBox"><stop offset="0" stop-color="#f7903b"/><stop offset="1" stop-color="#f2a165"/></linearGradient></defs><g transform="translate(9 7)"><g class="e" transform="matrix(1, 0, 0, 1, -9, -7)"><g class="a" transform="translate(9 7)"><path class="c" d="M 16.5 32.40000152587891 C 12.25296020507812 32.40000152587891 8.260109901428223 30.7461109161377 5.256999969482422 27.74300003051758 C 2.253890037536621 24.73988914489746 0.6000000238418579 20.74703979492188 0.6000000238418579 16.5 C 0.6000000238418579 12.25296020507812 2.253890037536621 8.260109901428223 5.256999969482422 5.256999969482422 C 8.260109901428223 2.253890037536621 12.25296020507812 0.6000000238418579 16.5 0.6000000238418579 C 20.74703979492188 0.6000000238418579 24.73988914489746 2.253890037536621 27.74300003051758 5.256999969482422 C 30.7461109161377 8.260109901428223 32.40000152587891 12.25296020507812 32.40000152587891 16.5 C 32.40000152587891 20.74703979492188 30.7461109161377 24.73988914489746 27.74300003051758 27.74300003051758 C 24.73988914489746 30.7461109161377 20.74703979492188 32.40000152587891 16.5 32.40000152587891 Z"/><path class="d" d="M 16.5 1.200000762939453 C 12.4132194519043 1.200000762939453 8.571050643920898 2.791479110717773 5.681270599365234 5.681270599365234 C 2.791479110717773 8.571050643920898 1.200000762939453 12.4132194519043 1.200000762939453 16.5 C 1.200000762939453 20.5867805480957 2.791479110717773 24.42895126342773 5.681270599365234 27.31872940063477 C 8.571050643920898 30.20851898193359 12.4132194519043 31.79999923706055 16.5 31.79999923706055 C 20.5867805480957 31.79999923706055 24.42895126342773 30.20851898193359 27.31872940063477 27.31872940063477 C 30.20851898193359 24.42895126342773 31.79999923706055 20.5867805480957 31.79999923706055 16.5 C 31.79999923706055 12.4132194519043 30.20851898193359 8.571050643920898 27.31872940063477 5.681270599365234 C 24.42895126342773 2.791479110717773 20.5867805480957 1.200000762939453 16.5 1.200000762939453 M 16.5 0 C 25.61269950866699 0 33 7.387300491333008 33 16.5 C 33 25.61269950866699 25.61269950866699 33 16.5 33 C 7.387300491333008 33 0 25.61269950866699 0 16.5 C 0 7.387300491333008 7.387300491333008 0 16.5 0 Z"/></g></g><g transform="translate(7 7.132)"><path class="b" d="M21.932,14a2.444,2.444,0,0,1,1.568-2.28,9.687,9.687,0,0,0-1.173-2.825,2.478,2.478,0,0,1-.995.213A2.439,2.439,0,0,1,19.1,5.672,9.663,9.663,0,0,0,16.281,4.5a2.443,2.443,0,0,1-4.562,0A9.693,9.693,0,0,0,8.894,5.672,2.439,2.439,0,0,1,6.662,9.105a2.4,2.4,0,0,1-.995-.213A9.9,9.9,0,0,0,4.5,11.722a2.443,2.443,0,0,1,0,4.561,9.687,9.687,0,0,0,1.173,2.825A2.44,2.44,0,0,1,8.9,22.328,9.749,9.749,0,0,0,11.724,23.5a2.439,2.439,0,0,1,4.552,0A9.693,9.693,0,0,0,19.1,22.328a2.443,2.443,0,0,1,3.221-3.22A9.744,9.744,0,0,0,23.5,16.283,2.456,2.456,0,0,1,21.932,14ZM14.045,17.95A3.957,3.957,0,1,1,18,13.993,3.957,3.957,0,0,1,14.045,17.95Z" transform="translate(-4.5 -4.5)"/></g></g></svg>