<svg xmlns="http://www.w3.org/2000/svg" width="25.483" height="25.484" viewBox="0 0 25.483 25.484"><defs><style>.a{fill:#f08e3c;}</style></defs><g transform="translate(0 0)"><circle class="a" cx="3.185" cy="3.185" r="3.185" transform="translate(2.655 11.68)"/><path class="a" d="M8.76,19H2.92A2.922,2.922,0,0,0,0,21.92v1.593a.8.8,0,0,0,.8.8H10.883a.8.8,0,0,0,.8-.8V21.92A2.922,2.922,0,0,0,8.76,19Z" transform="translate(0 1.174)"/><circle class="a" cx="3.185" cy="3.185" r="3.185" transform="translate(16.458 11.68)"/><path class="a" d="M21.76,19H15.92A2.922,2.922,0,0,0,13,21.92v1.593a.8.8,0,0,0,.8.8H23.883a.8.8,0,0,0,.8-.8V21.92A2.922,2.922,0,0,0,21.76,19Z" transform="translate(0.803 1.174)"/><path class="a" d="M14.292,10.171v.764A1.185,1.185,0,0,1,13.1,12.114H11.149a1.226,1.226,0,0,1-1.189-1.37v-.573Z" transform="translate(0.616 0.629)"/><path class="a" d="M17.057,4.747a4.7,4.7,0,0,1-1.752,3.674,2.278,2.278,0,0,0-.828,1.317H10.092a2,2,0,0,0-.775-1.264A4.694,4.694,0,0,1,7.5,4.652,4.8,4.8,0,0,1,12.2,0a4.768,4.768,0,0,1,4.852,4.746Z" transform="translate(0.464 0)"/></g></svg>