<svg xmlns="http://www.w3.org/2000/svg" width="27.332" height="27.332" viewBox="0 0 27.332 27.332"><defs><style>.a{fill:#fff;}</style></defs><g transform="translate(0 0)"><circle class="a" cx="3.417" cy="3.417" r="3.417" transform="translate(2.847 12.527)"/><path class="a" d="M9.4,19H3.132A3.134,3.134,0,0,0,0,22.132V23.84a.854.854,0,0,0,.854.854H11.673a.854.854,0,0,0,.854-.854V22.132A3.134,3.134,0,0,0,9.4,19Z" transform="translate(0 2.638)"/><circle class="a" cx="3.417" cy="3.417" r="3.417" transform="translate(17.652 12.527)"/><path class="a" d="M22.4,19H16.132A3.134,3.134,0,0,0,13,22.132V23.84a.854.854,0,0,0,.854.854H24.673a.854.854,0,0,0,.854-.854V22.132A3.134,3.134,0,0,0,22.4,19Z" transform="translate(1.805 2.638)"/><path class="a" d="M14.606,10.171v.82a1.271,1.271,0,0,1-1.275,1.264h-2.1A1.315,1.315,0,0,1,9.96,10.786v-.615Z" transform="translate(1.383 1.412)"/><path class="a" d="M17.751,5.092a5.045,5.045,0,0,1-1.879,3.94,2.444,2.444,0,0,0-.888,1.412h-4.7a2.142,2.142,0,0,0-.831-1.355A5.034,5.034,0,0,1,7.5,4.989,5.151,5.151,0,0,1,12.546,0a5.114,5.114,0,0,1,5.2,5.091Z" transform="translate(1.041 0)"/></g></svg>