<svg xmlns="http://www.w3.org/2000/svg" width="37.202" height="42.055" viewBox="0 0 37.202 42.055"><defs><style>.a{fill:#fff;}</style></defs><path class="a" d="M10.81,41.405A5.405,5.405,0,1,0,5.405,46.81,5.405,5.405,0,0,0,10.81,41.405ZM2.7,42.756H4.054a.676.676,0,0,0,.676.676H6.081a.676.676,0,1,0,0-1.351H4.729a2.027,2.027,0,0,1,0-4.054v-.676H6.081v.676a2.027,2.027,0,0,1,2.027,2.027H6.756a.676.676,0,0,0-.676-.676H4.729a.676.676,0,0,0,0,1.351H6.081a2.027,2.027,0,1,1,0,4.054v.676H4.729v-.676A2.027,2.027,0,0,1,2.7,42.756Z" transform="translate(0 -29.711)"/><path class="a" d="M243.1,11.579,240,8.48V10.9a.676.676,0,0,0,.676.676Z" transform="translate(-206.852 -7.525)"/><path class="a" d="M75.613,6.47A2.476,2.476,0,0,1,73.1,4.044V0H50.51A2.469,2.469,0,0,0,48,2.426v.809a8.231,8.231,0,0,1,8.368,8.087A8.231,8.231,0,0,1,48,19.41V39.628a2.476,2.476,0,0,0,2.51,2.426H77.287a2.476,2.476,0,0,0,2.51-2.426V6.47ZM62.225,3.235h6.694V4.852H62.225Zm-3.347,0h1.674V4.852H58.878Zm0,3.235H68.919V8.087H58.878ZM53.021,23.454h1.674V19.41a.823.823,0,0,1,.837-.809h3.347a.823.823,0,0,1,.837.809v4.044h1.674V16.175a.823.823,0,0,1,.837-.809h3.347a.823.823,0,0,1,.837.809v7.279h1.674V12.94a.823.823,0,0,1,.837-.809h3.347a.823.823,0,0,1,.837.809V23.454h1.674v1.617H53.021ZM63.062,37.2a.823.823,0,0,1-.837.809H53.857a.823.823,0,0,1-.837-.809V29.115a.823.823,0,0,1,.837-.809h8.368a.823.823,0,0,1,.837.809Zm13.388-.809H66.409V34.776H76.45Zm0-3.235H66.409V31.541H76.45Zm0-3.235H66.409V28.306H76.45Z" transform="translate(-42.595)"/></svg>