<svg xmlns="http://www.w3.org/2000/svg" width="36.103" height="36.103" viewBox="0 0 36.103 36.103"><defs><style>.a{fill:#fff;}</style></defs><g transform="translate(0 0)"><g transform="translate(0 0)"><path class="a" d="M180.814,265.391a.743.743,0,0,0-.2.36l-1.64,6.959a.751.751,0,0,0,.733.924.7.7,0,0,0,.173-.021l6.957-1.639a.75.75,0,0,0,.36-.2l9.839-9.84-6.382-6.383Z" transform="translate(-166.336 -237.53)"/><path class="a" d="M376.817,182.35l-2.127-2.127a3.082,3.082,0,0,0-4.255,0l-2.924,2.925,6.381,6.383,2.926-2.923a3.009,3.009,0,0,0,0-4.255Z" transform="translate(-341.596 -166.722)"/><path class="a" d="M10.289,28.581H3.76a.752.752,0,0,1-.752-.752V24.068H14.291a1.5,1.5,0,0,0,1.5-1.5V16.547h6.123a1.5,1.5,0,1,0,0-3.009H15.8V9.026h9.778v1.5a1.5,1.5,0,1,0,3.008,0V3.385A3.385,3.385,0,0,0,25.2,0H3.385A3.385,3.385,0,0,0,0,3.385V27.83a3.766,3.766,0,0,0,3.76,3.76h6.529a1.5,1.5,0,1,0,0-3.009Zm2.5-7.521H3.009V16.547h9.777Zm0-7.522H3.009V9.026h9.777Z" transform="translate(0 0)"/></g></g></svg>