<svg xmlns="http://www.w3.org/2000/svg" width="24.111" height="24.007" viewBox="0 0 24.111 24.007"><defs><style>.a{fill:#f48122;stroke:#f48122;stroke-width:0.5px;fill-rule:evenodd;}</style></defs><g transform="translate(0.296 0.25)"><path class="a" d="M34.578,986.359a.735.735,0,0,0-.367,1.262l10.48,10.488L34.211,1008.6a.738.738,0,0,0,1.032,1.056l10.5-10.488,10.48,10.488a.738.738,0,0,0,1.032-1.056l-10.48-10.488,10.48-10.488a.738.738,0,0,0-1.032-1.056l-10.48,10.488-10.5-10.488a.733.733,0,0,0-.527-.206A.682.682,0,0,0,34.578,986.359Z" transform="translate(-33.975 -986.355)"/></g></svg>