<svg xmlns="http://www.w3.org/2000/svg" width="40.98" height="29.511" viewBox="0 0 40.98 29.511"><defs><style>.a{fill:#fff;}</style></defs><g transform="translate(0 -68.3)"><g transform="translate(0 68.3)"><path class="a" d="M133.5,327.777l-.361-.361-.042-.042a13.07,13.07,0,0,1-14.735-.974c-.621.428-1.259.907-1.881,1.419a2.137,2.137,0,0,0-.781,1.654V332.5h21.535v-1l-3.165-3.165Z" transform="translate(-105.986 -304.73)"/><path class="a" d="M195.745,122.3h-.957a3.992,3.992,0,0,0-3.988,3.988v4.425a1.993,1.993,0,0,0,.89,1.662v3.778a7.812,7.812,0,0,0,7.145-.017v-3.753a1.993,1.993,0,0,0,.89-1.662V126.3A3.976,3.976,0,0,0,195.745,122.3Z" transform="translate(-174.781 -117.766)"/><path class="a" d="M384.94,137.866a29.743,29.743,0,0,0-5.281-3.392.158.158,0,0,1-.092-.151v-3.577a1.671,1.671,0,0,0,.747-1.394v-3.711a3.339,3.339,0,0,0-3.342-3.342H376.2a13.085,13.085,0,0,1,.126,13.534l.042.042.168.168.193.193.571.571,5,5h3.291v-2.544A1.829,1.829,0,0,0,384.94,137.866Z" transform="translate(-344.615 -117.766)"/><path class="a" d="M137,95.116l-6.607-6.608-.571-.571-.193-.193h0l-.168-.168-.445.445-.957-.957a11.4,11.4,0,1,0-1.343,1.343l.957.957-.445.445h0l.361.361.571.571,6.607,6.608a1.581,1.581,0,0,0,2.233,0,1.586,1.586,0,0,0,0-2.233Zm-10.931-8.69a9.5,9.5,0,1,1,0-13.433A9.472,9.472,0,0,1,126.064,86.427Z" transform="translate(-98.887 -68.3)"/><path class="a" d="M9.353,122.3h-.73a3.339,3.339,0,0,0-3.342,3.342v3.711a1.671,1.671,0,0,0,.747,1.394v3.577a.167.167,0,0,1-.092.151,29.226,29.226,0,0,0-5.281,3.392A1.824,1.824,0,0,0,0,139.26V141.8H8.161A3.763,3.763,0,0,1,9.47,139.6c.554-.453,1.117-.882,1.671-1.276A13.071,13.071,0,0,1,9.353,122.3Z" transform="translate(0 -117.766)"/></g></g></svg>