<svg xmlns="http://www.w3.org/2000/svg" width="20" height="14" viewBox="0 0 20 14"><defs><style>.a{fill:#fff;}</style></defs><g transform="translate(-1228.5 -82.5)"><path class="a" d="M15.627,10.111h-9.6L7.859,8.33a.763.763,0,0,0,0-1.1.816.816,0,0,0-1.128,0l-3.2,3.111a.763.763,0,0,0,0,1.1l3.2,3.111a.818.818,0,0,0,1.128,0,.763.763,0,0,0,0-1.1L6.027,11.666h9.6a.778.778,0,1,0,0-1.555Z" transform="translate(1225.206 75.501)"/><path class="a" d="M25.186,18.336l-3.2-3.111a.816.816,0,0,0-1.128,0,.763.763,0,0,0,0,1.1l1.832,1.781h-9.6a.778.778,0,1,0,0,1.555h9.6l-1.832,1.781a.763.763,0,0,0,0,1.1.818.818,0,0,0,1.128,0l3.2-3.111a.763.763,0,0,0,0-1.1Z" transform="translate(1223.077 73.723)"/></g></svg>