<svg xmlns="http://www.w3.org/2000/svg" width="14.424" height="16.494" viewBox="0 0 14.424 16.494"><defs><style>.a{fill:#f48122;}</style></defs><g transform="translate(-0.001)"><path class="a" d="M7.591,6.556v.829a1.26,1.26,0,0,0,.156.657.743.743,0,0,0,.645.374,1.107,1.107,0,0,0,.772-.378L11.9,5.3a1.544,1.544,0,0,0,0-2.181L9.165.378A1.107,1.107,0,0,0,8.392,0c-.4,0-.8.319-.8,1.03v.753A8.136,8.136,0,0,0,0,8.9a.483.483,0,0,0,.87.344A6.818,6.818,0,0,1,7.591,6.556Zm0,0" transform="translate(0 0)"/><path class="a" d="M76.3,218.8a.483.483,0,0,0-.568.164,6.817,6.817,0,0,1-6.717,2.692v-.829c0-.712-.4-1.03-.8-1.03a1.107,1.107,0,0,0-.772.378L64.7,222.913a1.544,1.544,0,0,0,0,2.181l2.739,2.739a1.107,1.107,0,0,0,.772.378c.4,0,.8-.319.8-1.03v-.753a8.136,8.136,0,0,0,7.586-7.121A.483.483,0,0,0,76.3,218.8Zm0,0" transform="translate(-62.182 -211.717)"/></g></svg>