<svg xmlns="http://www.w3.org/2000/svg" xmlns:xlink="http://www.w3.org/1999/xlink" width="30" height="30" viewBox="0 0 30 30"><defs><style>.a{fill:#fdf4ed;}.b{fill:url(#a);}</style><linearGradient id="a" x1="0.5" x2="0.5" y2="1" gradientUnits="objectBoundingBox"><stop offset="0" stop-color="#f7903b"/><stop offset="1" stop-color="#f2a165"/></linearGradient></defs><g transform="translate(0 0)"><rect class="a" width="30" height="30" rx="8" transform="translate(0 0)"/><g transform="translate(1.346 3.271)"><path class="b" d="M22.967,7.215a.812.812,0,0,0,0-1.145l-1.68-1.68a.812.812,0,0,0-1.145,0l-8.69,8.69a.812.812,0,0,1-1.145,0L7.215,9.988a.812.812,0,0,0-1.145,0l-1.68,1.68a.812.812,0,0,0,0,1.145l5.917,5.917a.812.812,0,0,0,1.145,0l1.68-1.68,1.145-1.145Z" transform="translate(0 0)"/></g></g></svg>