<svg xmlns="http://www.w3.org/2000/svg" width="36" height="35" viewBox="0 0 36 35"><defs><style>.a{fill:#f2f2f2;stroke:#ededed;opacity:0.695;}.b{fill:#1f1f1f;stroke:#1f1f1f;stroke-width:0.5px;fill-rule:evenodd;}.c{stroke:none;}.d{fill:none;}</style></defs><g transform="translate(-0.46 -0.249)"><g class="a" transform="translate(0.46 0.249)"><rect class="c" width="36" height="35" rx="17.5"/><rect class="d" x="0.5" y="0.5" width="35" height="34" rx="17"/></g><g transform="translate(11.262 9.627)"><path class="b" d="M34.37,986.357a.482.482,0,0,0-.241.828L41,994.062l-6.872,6.877a.484.484,0,1,0,.677.692l6.887-6.877,6.872,6.877a.484.484,0,1,0,.677-.692l-6.872-6.877,6.872-6.877a.484.484,0,0,0-.677-.692l-6.872,6.877-6.887-6.877a.481.481,0,0,0-.346-.135A.446.446,0,0,0,34.37,986.357Z" transform="translate(-33.975 -986.355)"/></g></g></svg>