<svg xmlns="http://www.w3.org/2000/svg" xmlns:xlink="http://www.w3.org/1999/xlink" width="30" height="30" viewBox="0 0 30 30"><defs><style>.a{fill:#fdf4ed;}.b{fill:url(#a);}</style><linearGradient id="a" x1="0.5" x2="0.5" y2="1" gradientUnits="objectBoundingBox"><stop offset="0" stop-color="#f7903b"/><stop offset="1" stop-color="#f2a165"/></linearGradient></defs><g transform="translate(-0.445)"><rect class="a" width="30" height="30" rx="8" transform="translate(0.445 0)"/><g transform="translate(7.445 7)"><path class="b" d="M19.221,12.521A2.064,2.064,0,0,1,20.546,10.6a8.181,8.181,0,0,0-.99-2.385,2.093,2.093,0,0,1-.84.18,2.06,2.06,0,0,1-1.885-2.9,8.161,8.161,0,0,0-2.382-.99,2.063,2.063,0,0,1-3.853,0,8.186,8.186,0,0,0-2.386.99,2.06,2.06,0,0,1-1.885,2.9,2.025,2.025,0,0,1-.84-.18A8.362,8.362,0,0,0,4.5,10.6a2.063,2.063,0,0,1,0,3.852,8.181,8.181,0,0,0,.99,2.385,2.061,2.061,0,0,1,2.72,2.72,8.233,8.233,0,0,0,2.386.99,2.059,2.059,0,0,1,3.844,0,8.186,8.186,0,0,0,2.386-.99,2.063,2.063,0,0,1,2.72-2.72,8.229,8.229,0,0,0,.99-2.385A2.074,2.074,0,0,1,19.221,12.521Zm-6.661,3.338A3.342,3.342,0,1,1,15.9,12.517,3.342,3.342,0,0,1,12.561,15.859Z" transform="translate(-4.5 -4.5)"/></g></g></svg>