<svg xmlns="http://www.w3.org/2000/svg" width="17.381" height="19.864" viewBox="0 0 17.381 19.864"><defs><style>.a{fill:#969696;}</style></defs><path class="a" d="M12.415,17.381v1.552a.931.931,0,0,1-.931.931H.931A.931.931,0,0,1,0,18.933V4.656a.931.931,0,0,1,.931-.931H3.724V15.208A2.175,2.175,0,0,0,5.9,17.381Zm0-13.346V0H5.9a.931.931,0,0,0-.931.931V15.208a.931.931,0,0,0,.931.931H16.45a.931.931,0,0,0,.931-.931V4.966H13.346A.934.934,0,0,1,12.415,4.035Zm4.693-1.2L14.55.273A.931.931,0,0,0,13.891,0h-.235V3.724h3.724V3.489a.931.931,0,0,0-.273-.658Z"/></svg>