<svg xmlns="http://www.w3.org/2000/svg" width="32.265" height="32.265" viewBox="0 0 32.265 32.265"><defs><style>.a{fill:#fff;}</style></defs><path class="a" d="M12.435,0H2.353A2.355,2.355,0,0,0,0,2.353V8.4a2.355,2.355,0,0,0,2.353,2.353H12.435A2.355,2.355,0,0,0,14.788,8.4V2.353A2.355,2.355,0,0,0,12.435,0Zm0,0"/><path class="a" d="M12.435,213.332H2.353A2.355,2.355,0,0,0,0,215.685V229.8a2.355,2.355,0,0,0,2.353,2.353H12.435a2.355,2.355,0,0,0,2.353-2.353V215.685A2.355,2.355,0,0,0,12.435,213.332Zm0,0" transform="translate(0 -199.888)"/><path class="a" d="M289.768,341.332H279.685a2.355,2.355,0,0,0-2.353,2.353v6.05a2.355,2.355,0,0,0,2.353,2.353h10.083a2.355,2.355,0,0,0,2.353-2.353v-6.05A2.355,2.355,0,0,0,289.768,341.332Zm0,0" transform="translate(-259.855 -319.822)"/><path class="a" d="M289.768,0H279.685a2.355,2.355,0,0,0-2.353,2.353V16.469a2.355,2.355,0,0,0,2.353,2.353h10.083a2.355,2.355,0,0,0,2.353-2.353V2.353A2.355,2.355,0,0,0,289.768,0Zm0,0" transform="translate(-259.855)"/></svg>