<svg xmlns="http://www.w3.org/2000/svg" xmlns:xlink="http://www.w3.org/1999/xlink" width="44" height="44" viewBox="0 0 44 44"><defs><style>.a{fill:#fff;}.b{fill:#f6903c;stroke:#f6903c;stroke-width:1.2px;fill-rule:evenodd;}.c,.d{stroke:none;}.d{fill:#f6903c;}.e{filter:url(#a);}</style><filter id="a" x="0" y="0" width="44" height="44" filterUnits="userSpaceOnUse"><feOffset dy="2" input="SourceAlpha"/><feGaussianBlur stdDeviation="3" result="b"/><feFlood flood-color="#818181" flood-opacity="0.161"/><feComposite operator="in" in2="b"/><feComposite in="SourceGraphic"/></filter></defs><g transform="translate(9 7)"><g class="e" transform="matrix(1, 0, 0, 1, -9, -7)"><g class="a" transform="translate(9 7)"><path class="c" d="M 13 25.5 C 9.661129951477051 25.5 6.52209997177124 24.19976997375488 4.16117000579834 21.83883094787598 C 1.800230026245117 19.4778995513916 0.5 16.33886909484863 0.5 13 C 0.5 9.661129951477051 1.800230026245117 6.52209997177124 4.16117000579834 4.16117000579834 C 6.52209997177124 1.800230026245117 9.661129951477051 0.5 13 0.5 C 16.33886909484863 0.5 19.4778995513916 1.800230026245117 21.83883094787598 4.16117000579834 C 24.19976997375488 6.52209997177124 25.5 9.661129951477051 25.5 13 C 25.5 16.33886909484863 24.19976997375488 19.4778995513916 21.83883094787598 21.83883094787598 C 19.4778995513916 24.19976997375488 16.33886909484863 25.5 13 25.5 Z"/><path class="d" d="M 13 1 C 9.794679641723633 1 6.781219482421875 2.248220443725586 4.514720916748047 4.514720916748047 C 2.248220443725586 6.781219482421875 1 9.794679641723633 1 13 C 1 16.20532035827637 2.248220443725586 19.21878051757812 4.514720916748047 21.48527908325195 C 6.781219482421875 23.75177955627441 9.794679641723633 25 13 25 C 16.20532035827637 25 19.21878051757812 23.75177955627441 21.48527908325195 21.48527908325195 C 23.75177955627441 19.21878051757812 25 16.20532035827637 25 13 C 25 9.794679641723633 23.75177955627441 6.781219482421875 21.48527908325195 4.514720916748047 C 19.21878051757812 2.248220443725586 16.20532035827637 1 13 1 M 13 0 C 20.1796989440918 0 26 5.82029914855957 26 13 C 26 20.1796989440918 20.1796989440918 26 13 26 C 5.82029914855957 26 0 20.1796989440918 0 13 C 0 5.82029914855957 5.82029914855957 0 13 0 Z"/></g></g><g transform="translate(6.917 6.916)"><path class="b" d="M.312,0a.38.38,0,0,0-.19.653L5.547,6.083.122,11.512a.382.382,0,1,0,.534.546L6.093,6.63l5.424,5.428a.382.382,0,1,0,.534-.546L6.627,6.083,12.051.655a.382.382,0,0,0-.534-.547L6.093,5.537.656.109A.38.38,0,0,0,.383,0,.365.365,0,0,0,.312,0Z" transform="translate(0)"/></g></g></svg>