<svg xmlns="http://www.w3.org/2000/svg" width="21" height="21" viewBox="0 0 21 21"><defs><style>.a{fill:#ededed;}.b{fill:#959595;stroke:#909090;stroke-width:0.9px;fill-rule:evenodd;}</style></defs><g transform="translate(-294.5 -271.5)"><path class="a" d="M10.5,0A10.5,10.5,0,1,1,0,10.5,10.5,10.5,0,0,1,10.5,0Z" transform="translate(294.5 271.5)"/><g transform="translate(299.637 276.637)"><g transform="translate(0)"><path class="b" d="M.275,0A.335.335,0,0,0,.108.577L4.889,5.363.108,10.148a.337.337,0,1,0,.471.482L5.371,5.844l4.782,4.785a.337.337,0,1,0,.471-.482L5.842,5.363,10.623.577A.337.337,0,0,0,10.153.1L5.371,4.881.579.1A.335.335,0,0,0,.338,0,.322.322,0,0,0,.275,0Z"/></g></g></g></svg>