<svg xmlns="http://www.w3.org/2000/svg" viewBox="0 0 51.02 22.22">
  <defs>
    <style>.cls-1{fill:#f48122;}</style>
  </defs>
  <g id="Camada_2" data-name="Camada 2">
  <g id="Camada_1-2" data-name="Camada 1">
  <path class="cls-1" d="M51,0a.31.31,0,0,1,0,.21c0,3.58,0,7.15,0,10.73a.57.57,0,0,1-.19.42,29.37,29.37,0,0,1-6.56,4.84A44.94,44.94,0,0,1,34.86,20c-.19,0-.24,0-.24-.18,0-2.38,0-4.75,0-7.13a.39.39,0,0,1,.27-.42,53.52,53.52,0,0,0,9-5.45,37.44,37.44,0,0,0,7-6.73S50.93,0,51,0Z"/>
  <path class="cls-1" d="M33.7,12.85v7.24c0,.17,0,.24-.21.28a57.51,57.51,0,0,1-6.88,1.3c-1.78.24-3.58.39-5.38.47-1.22.05-2.45.08-3.68.08-.18,0-.24,0-.24-.24,0-1.3,0-2.59,0-3.88,0-.22.07-.27.26-.3a66.61,66.61,0,0,0,15.9-4.86Z"/>
  <path class="cls-1" d="M16.39,20.1V22c0,.16,0,.22-.2.21-1.44,0-2.89-.13-4.33-.26-1.81-.16-3.6-.4-5.39-.72A59.41,59.41,0,0,1,.16,19.75a.18.18,0,0,1-.16-.2H0Q0,19,0,18.46c0-.13,0-.16.16-.14.93.12,1.86.22,2.79.29s1.79.1,2.68.13c1.19,0,2.38,0,3.57,0,1.58-.06,3.16-.18,4.73-.37.76-.09,1.53-.19,2.29-.31.13,0,.18,0,.18.15C16.39,18.82,16.39,19.46,16.39,20.1Z"/>
  </g></g>
</svg>
