<svg xmlns="http://www.w3.org/2000/svg" xmlns:xlink="http://www.w3.org/1999/xlink" width="51" height="51" viewBox="0 0 51 51"><defs><style>.a{fill:#fff;}.b{fill:#f6903c;stroke:#f6903c;stroke-width:0.4px;}.c,.d{stroke:none;}.d{fill:#f6903c;}.e{filter:url(#a);}</style><filter id="a" x="0" y="0" width="51" height="51" filterUnits="userSpaceOnUse"><feOffset dy="2" input="SourceAlpha"/><feGaussianBlur stdDeviation="3" result="b"/><feFlood flood-color="#818181" flood-opacity="0.161"/><feComposite operator="in" in2="b"/><feComposite in="SourceGraphic"/></filter></defs><g transform="translate(9 7)"><g class="e" transform="matrix(1, 0, 0, 1, -9, -7)"><g class="a" transform="translate(9 7)"><path class="c" d="M 16.5 32.40000152587891 C 12.25296020507812 32.40000152587891 8.260109901428223 30.7461109161377 5.256999969482422 27.74300003051758 C 2.253890037536621 24.73988914489746 0.6000000238418579 20.74703979492188 0.6000000238418579 16.5 C 0.6000000238418579 12.25296020507812 2.253890037536621 8.260109901428223 5.256999969482422 5.256999969482422 C 8.260109901428223 2.253890037536621 12.25296020507812 0.6000000238418579 16.5 0.6000000238418579 C 20.74703979492188 0.6000000238418579 24.73988914489746 2.253890037536621 27.74300003051758 5.256999969482422 C 30.7461109161377 8.260109901428223 32.40000152587891 12.25296020507812 32.40000152587891 16.5 C 32.40000152587891 20.74703979492188 30.7461109161377 24.73988914489746 27.74300003051758 27.74300003051758 C 24.73988914489746 30.7461109161377 20.74703979492188 32.40000152587891 16.5 32.40000152587891 Z"/><path class="d" d="M 16.5 1.200000762939453 C 12.4132194519043 1.200000762939453 8.571050643920898 2.791479110717773 5.681270599365234 5.681270599365234 C 2.791479110717773 8.571050643920898 1.200000762939453 12.4132194519043 1.200000762939453 16.5 C 1.200000762939453 20.5867805480957 2.791479110717773 24.42895126342773 5.681270599365234 27.31872940063477 C 8.571050643920898 30.20851898193359 12.4132194519043 31.79999923706055 16.5 31.79999923706055 C 20.5867805480957 31.79999923706055 24.42895126342773 30.20851898193359 27.31872940063477 27.31872940063477 C 30.20851898193359 24.42895126342773 31.79999923706055 20.5867805480957 31.79999923706055 16.5 C 31.79999923706055 12.4132194519043 30.20851898193359 8.571050643920898 27.31872940063477 5.681270599365234 C 24.42895126342773 2.791479110717773 20.5867805480957 1.200000762939453 16.5 1.200000762939453 M 16.5 0 C 25.61269950866699 0 33 7.387300491333008 33 16.5 C 33 25.61269950866699 25.61269950866699 33 16.5 33 C 7.387300491333008 33 0 25.61269950866699 0 16.5 C 0 7.387300491333008 7.387300491333008 0 16.5 0 Z"/></g></g><g transform="translate(7.963 8.127)"><g transform="translate(0 0)"><path class="b" d="M27.059,36.5a.777.777,0,0,0-.777.772v3.975a1.248,1.248,0,0,1-1.243,1.235H13a1.248,1.248,0,0,1-1.243-1.235V37.272a.777.777,0,0,0-1.554,0v3.975A2.8,2.8,0,0,0,13,44.026H25.039a2.8,2.8,0,0,0,2.8-2.779V37.272A.777.777,0,0,0,27.059,36.5Z" transform="translate(-10.2 -26.894)"/><path class="b" d="M22.028,18.715l2.7,2.663V12.772a.781.781,0,0,1,1.562,0v8.606l2.7-2.663a.761.761,0,0,1,1.094,0,.74.74,0,0,1,0,1.081l-4.023,3.975A.659.659,0,0,1,25.5,24h0a.776.776,0,0,1-.547-.232h0L20.934,19.8a.74.74,0,0,1,0-1.081A.761.761,0,0,1,22.028,18.715Z" transform="translate(-16.648 -12)"/></g></g></g></svg>