<svg xmlns="http://www.w3.org/2000/svg" width="23.663" height="17.596" viewBox="0 0 23.663 17.596"><defs><style>.a{fill:#f08e3c;}</style></defs><path class="a" d="M22.3,25.316h-1.62c0-6.407-3.588-8.572-5.661-9.288V14.7a1.365,1.365,0,0,0-1.365-1.365H9.708A1.365,1.365,0,0,0,8.343,14.7v1.4c-2.095.784-5.461,3.01-5.461,9.216H1.365A1.365,1.365,0,0,0,0,26.682v2.882a1.365,1.365,0,0,0,1.365,1.365H5.309a1.366,1.366,0,0,0,1.365-1.365V26.682a1.366,1.366,0,0,0-1.365-1.365H3.792c0-5.432,2.7-7.489,4.551-8.264v.528a1.366,1.366,0,0,0,1.365,1.365h1.517v6.371H9.708a1.365,1.365,0,0,0-1.365,1.365v2.882a1.366,1.366,0,0,0,1.365,1.365h3.944a1.365,1.365,0,0,0,1.365-1.365V26.682a1.365,1.365,0,0,0-1.365-1.365H12.135V18.945h1.517a1.365,1.365,0,0,0,1.365-1.365v-.608c1.854.708,4.751,2.714,4.751,8.344H18.354a1.366,1.366,0,0,0-1.365,1.365v2.882a1.366,1.366,0,0,0,1.365,1.365H22.3a1.365,1.365,0,0,0,1.365-1.365V26.682A1.365,1.365,0,0,0,22.3,25.316Z" transform="translate(0 -13.333)"/></svg>