<svg xmlns="http://www.w3.org/2000/svg" width="20.851" height="20.851" viewBox="0 0 20.851 20.851"><defs><style>.a{fill:#9a9a9a;}</style></defs><path class="a" d="M17.8,3.055a10.423,10.423,0,1,0,0,14.741A10.418,10.418,0,0,0,17.8,3.055ZM17.36,16.31A10.448,10.448,0,0,0,15.8,15.157a16.858,16.858,0,0,0,.629-4.067H19.5a9.012,9.012,0,0,1-2.136,5.22ZM1.355,11.089H4.419a16.857,16.857,0,0,0,.629,4.067A10.448,10.448,0,0,0,3.491,16.31,9.013,9.013,0,0,1,1.355,11.089ZM3.491,4.541A10.448,10.448,0,0,0,5.048,5.694a16.857,16.857,0,0,0-.629,4.067H1.355A9.013,9.013,0,0,1,3.491,4.541Zm6.27,1.29a9.024,9.024,0,0,1-3.1-.784c.563-1.45,1.6-3.19,3.1-3.621Zm0,1.331v2.6H5.748a15.65,15.65,0,0,1,.5-3.444A10.353,10.353,0,0,0,9.761,7.162Zm0,3.928v2.6a10.353,10.353,0,0,0-3.51.845,15.65,15.65,0,0,1-.5-3.444Zm0,3.93v4.405c-1.495-.431-2.533-2.17-3.1-3.621A9.024,9.024,0,0,1,9.761,15.019Zm1.328,0a9.024,9.024,0,0,1,3.1.784c-.563,1.45-1.6,3.19-3.1,3.621Zm0-1.331v-2.6H15.1a15.65,15.65,0,0,1-.5,3.444A10.354,10.354,0,0,0,11.09,13.688Zm0-3.928v-2.6a10.353,10.353,0,0,0,3.51-.845,15.65,15.65,0,0,1,.5,3.444Zm0-3.93V1.426c1.495.431,2.533,2.17,3.1,3.621A9.025,9.025,0,0,1,11.09,5.831Zm2.984-3.742a9.055,9.055,0,0,1,2.355,1.5,9.13,9.13,0,0,1-1.069.811,10,10,0,0,0-1.286-2.315ZM5.492,4.4a9.133,9.133,0,0,1-1.069-.811,9.055,9.055,0,0,1,2.355-1.5A10,10,0,0,0,5.492,4.4Zm0,12.043a10,10,0,0,0,1.286,2.315,9.055,9.055,0,0,1-2.355-1.5A9.13,9.13,0,0,1,5.492,16.447Zm9.868,0a9.134,9.134,0,0,1,1.069.811,9.055,9.055,0,0,1-2.355,1.5A10,10,0,0,0,15.359,16.447Zm1.073-6.686A16.857,16.857,0,0,0,15.8,5.694,10.45,10.45,0,0,0,17.36,4.541,9.013,9.013,0,0,1,19.5,9.761Z" transform="translate(0 0.001)"/></svg>