<svg xmlns="http://www.w3.org/2000/svg" width="28.487" height="24.195" viewBox="0 0 28.487 24.195"><defs><style>.a{fill:#fff;}</style></defs><path class="a" d="M33,305.977v4.618a.516.516,0,0,0,.515.515h3.57a.516.516,0,0,0,.515-.515v-8.123l-2.593,2.593A3.145,3.145,0,0,1,33,305.977Z" transform="translate(-31.069 -286.915)"/><path class="a" d="M142,301.471v8.182a.516.516,0,0,0,.515.515h3.57a.516.516,0,0,0,.515-.515v-4.817a3.112,3.112,0,0,1-2.148-.913Z" transform="translate(-133.689 -285.973)"/><path class="a" d="M251,277.872V283.2a.516.516,0,0,0,.515.515h3.57a.516.516,0,0,0,.515-.515v-9.827l-4.091,4.091A3.065,3.065,0,0,1,251,277.872Z" transform="translate(-236.31 -259.518)"/><path class="a" d="M364.255,170.171,360,174.426v11.612a.516.516,0,0,0,.515.515h3.57a.516.516,0,0,0,.515-.515V170.493c-.117-.1-.2-.187-.269-.246Z" transform="translate(-338.931 -162.358)"/><path class="a" d="M28.245,36.946a1,1,0,0,0-.755-.275H27.4c-1.662.076-3.318.158-4.981.234a1.075,1.075,0,0,0-.767.263.872.872,0,0,0-.181.269.861.861,0,0,0,.263,1.042l.416.421c.287.293.579.585.872.872L12.975,49.822,8.463,45.309a1.434,1.434,0,0,0-2.031,0l-6.011,6a1.434,1.434,0,0,0,0,2.031l.269.269a1.434,1.434,0,0,0,2.031,0l4.723-4.723L11.957,53.4a1.441,1.441,0,0,0,2.037,0L25.324,42.073l1.282,1.276a.971.971,0,0,0,.685.363.847.847,0,0,0,.41-.111,1.115,1.115,0,0,0,.246-.181,1.19,1.19,0,0,0,.31-.825c.047-1.077.1-2.154.152-3.236l.076-1.621A1.007,1.007,0,0,0,28.245,36.946Z" transform="translate(0 -36.671)"/></svg>