<svg xmlns="http://www.w3.org/2000/svg" width="22.038" height="18.717" viewBox="0 0 22.038 18.717"><defs><style>.a{fill:#f08e3c;}</style></defs><g transform="translate(0)"><path class="a" d="M33,305.183v3.572a.4.4,0,0,0,.4.4H36.16a.4.4,0,0,0,.4-.4v-6.284l-2.006,2.006A2.433,2.433,0,0,1,33,305.183Z" transform="translate(-31.506 -290.437)"/><path class="a" d="M142,301.471v6.33a.4.4,0,0,0,.4.4h2.762a.4.4,0,0,0,.4-.4v-3.726a2.407,2.407,0,0,1-1.662-.706Z" transform="translate(-135.571 -289.482)"/><path class="a" d="M251,276.853v4.12a.4.4,0,0,0,.4.4h2.762a.4.4,0,0,0,.4-.4v-7.6l-3.165,3.165A2.369,2.369,0,0,1,251,276.853Z" transform="translate(-239.636 -262.654)"/><path class="a" d="M363.292,170.171,360,173.463v8.983a.4.4,0,0,0,.4.4h2.762a.4.4,0,0,0,.4-.4V170.42c-.091-.077-.158-.145-.208-.19Z" transform="translate(-343.701 -164.127)"/><path class="a" d="M21.85,36.884a.77.77,0,0,0-.584-.213h-.072c-1.286.059-2.567.122-3.853.181a.832.832,0,0,0-.593.2.675.675,0,0,0-.14.208.666.666,0,0,0,.2.806l.321.326c.222.226.448.453.675.675l-7.769,7.774L6.547,43.354a1.109,1.109,0,0,0-1.571,0L.326,48a1.109,1.109,0,0,0,0,1.571l.208.208a1.109,1.109,0,0,0,1.571,0l3.654-3.654L9.25,49.615a1.115,1.115,0,0,0,1.576,0l8.765-8.765.992.987a.751.751,0,0,0,.53.281.656.656,0,0,0,.317-.086.862.862,0,0,0,.19-.14.921.921,0,0,0,.24-.638c.036-.833.077-1.666.118-2.5l.059-1.254A.779.779,0,0,0,21.85,36.884Z" transform="translate(0 -36.671)"/></g></svg>