<svg xmlns="http://www.w3.org/2000/svg" xmlns:xlink="http://www.w3.org/1999/xlink" width="23" height="23" viewBox="0 0 23 23"><defs><style>.a{fill:url(#a);}</style><linearGradient id="a" x1="0.5" x2="0.5" y2="1" gradientUnits="objectBoundingBox"><stop offset="0" stop-color="#f7903b"/><stop offset="1" stop-color="#f2a165"/></linearGradient></defs><path class="a" d="M15,3.5A11.5,11.5,0,1,0,26.5,15,11.5,11.5,0,0,0,15,3.5Zm1.331,18.749a1.783,1.783,0,0,1-1.308.544,1.748,1.748,0,0,1-1.3-.544,1.844,1.844,0,0,1,2.6-2.612,1.751,1.751,0,0,1,.544,1.3A1.783,1.783,0,0,1,16.331,22.249Zm3.1-9.892a4.073,4.073,0,0,1-.4.913,4.946,4.946,0,0,1-.6.8q-.341.373-.725.742t-.606.618a2.72,2.72,0,0,0-.383.542,2.226,2.226,0,0,0-.2.564,3.267,3.267,0,0,0-.064.692v.341H13.66v-.715a3.982,3.982,0,0,1,.1-.947,3.4,3.4,0,0,1,.329-.841,4.2,4.2,0,0,1,.6-.806,10.36,10.36,0,0,1,.925-.873,6.6,6.6,0,0,0,.9-.937A1.689,1.689,0,0,0,16.83,11.4a1.568,1.568,0,0,0-.48-1.128,1.749,1.749,0,0,0-1.308-.495,2.077,2.077,0,0,0-1.447.554,2.357,2.357,0,0,0-.458.574,2.619,2.619,0,0,0-.267.66l-2.448-1.021a4.679,4.679,0,0,1,.542-1.192A4.578,4.578,0,0,1,13.232,7.5a4.726,4.726,0,0,1,1.731-.3,5.466,5.466,0,0,1,1.872.309,4.419,4.419,0,0,1,1.459.851,3.865,3.865,0,0,1,.947,1.288,4.014,4.014,0,0,1,.193,2.7Z" transform="translate(-3.5 -3.5)"/></svg>