<svg xmlns="http://www.w3.org/2000/svg" width="31.088" height="29.553" viewBox="0 0 31.088 29.553"><defs><style>.a{fill:#fff;}</style></defs><g transform="translate(-0.021 0.003)"><g transform="translate(0.021 -0.003)"><path class="a" d="M30.59,13.127,16.64.415a1.586,1.586,0,0,0-2.147,0L.542,13.127A1.594,1.594,0,0,0,1.616,15.9h2.23V28.635a.915.915,0,0,0,.911.915H12.4a.915.915,0,0,0,.915-.915V20.9h4.494v7.732a.915.915,0,0,0,.915.915h7.648a.914.914,0,0,0,.911-.915V15.9h2.229a1.594,1.594,0,0,0,1.074-2.773Z" transform="translate(-0.021 0.003)"/><path class="a" d="M351.053,36.465v-5.5a.915.915,0,0,0-.915-.915H344Z" transform="translate(-323.111 -28.225)"/></g></g></svg>