<svg xmlns="http://www.w3.org/2000/svg" xmlns:xlink="http://www.w3.org/1999/xlink" viewBox="0 0 19 14"><defs><style>.a{fill:#717676;}.b{clip-path:url(#c);}.c{filter:url(#a);}</style><filter id="a" x="-18" y="-15" width="55" height="50" filterUnits="userSpaceOnUse"><feOffset dy="3" input="SourceAlpha"/><feGaussianBlur stdDeviation="6" result="b"/><feFlood flood-opacity="0.098"/><feComposite operator="in" in2="b"/><feComposite in="SourceGraphic"/></filter><clipPath id="c"><g class="c" transform="matrix(1, 0, 0, 1, 0, 0)"><rect class="a" width="19" height="14" transform="translate(0 0)"/></g></clipPath></defs><g transform="translate(-7.285 -10)"><g class="b" transform="translate(7.285 10)"><g transform="translate(3.185 -0.112)"><path class="a" d="M195.09,7.041a3.407,3.407,0,0,0,2.489-1.031,3.406,3.406,0,0,0,1.031-2.489,3.407,3.407,0,0,0-1.031-2.489,3.52,3.52,0,0,0-4.978,0,3.406,3.406,0,0,0-1.031,2.489A3.406,3.406,0,0,0,192.6,6.01,3.407,3.407,0,0,0,195.09,7.041Zm0,0" transform="translate(-189.085 0)"/><path class="a" d="M12.166,548.561a8.7,8.7,0,0,0-.118-.924,7.274,7.274,0,0,0-.227-.929,4.586,4.586,0,0,0-.382-.866,3.269,3.269,0,0,0-.576-.75,2.538,2.538,0,0,0-.827-.52,2.858,2.858,0,0,0-1.056-.191,1.072,1.072,0,0,0-.572.243c-.172.112-.372.241-.6.384a3.414,3.414,0,0,1-.771.34,3,3,0,0,1-1.887,0,3.408,3.408,0,0,1-.771-.34c-.222-.142-.423-.271-.6-.385a1.07,1.07,0,0,0-.572-.243,2.856,2.856,0,0,0-1.056.191,2.536,2.536,0,0,0-.827.52,3.268,3.268,0,0,0-.575.75,4.6,4.6,0,0,0-.382.866,7.3,7.3,0,0,0-.227.929,8.666,8.666,0,0,0-.118.924c-.019.28-.029.57-.029.863a2.427,2.427,0,0,0,.721,1.836,2.6,2.6,0,0,0,1.858.678H9.617a2.6,2.6,0,0,0,1.857-.678,2.426,2.426,0,0,0,.721-1.836C12.195,549.13,12.185,548.839,12.166,548.561Zm0,0" transform="translate(0 -537.321)"/></g></g></g></svg>
