<svg xmlns="http://www.w3.org/2000/svg" width="35.067" height="27.502" viewBox="0 0 35.067 27.502"><defs><style>.a{fill:#fff;}</style></defs><path class="a" d="M137.768,498.7a7.009,7.009,0,0,0-2.439.893,43.105,43.105,0,0,0-4.463,2.6c-.087.058-.2.138-.29.189a5.253,5.253,0,0,1-1.793.733,57.094,57.094,0,0,1-8.81.849l-.3.015a.433.433,0,1,1-.066-.864l7.773-.74a1.638,1.638,0,0,0-.334-3.259l-6.909-.087a7.678,7.678,0,0,1-1.676-.254,10.89,10.89,0,0,0-8.3.486,1.612,1.612,0,0,0-1.5-.769l-2.983.2a1.749,1.749,0,0,0-1.669,1.85l.479,6.619a1.776,1.776,0,0,0,1.916,1.611l2.983-.2a1.585,1.585,0,0,0,1.365-.958l13.092.566a7.009,7.009,0,0,0,4.108-.7l.377-.2,9.892-5.791a1.629,1.629,0,0,0,.849-1.328,1.345,1.345,0,0,0-1.3-1.466ZM107.5,507.2a.98.98,0,1,1,1.016-.98,1,1,0,0,1-1.016.98Zm0,0" transform="translate(-104.001 -481.273)"/><path class="a" d="M393.879,494.484a44.192,44.192,0,0,1,4.245-2.417,9.964,9.964,0,0,1,1.125-.493,1.671,1.671,0,0,0-1.618-.138c-1.111.443-3.157,1.43-4.2,2a.1.1,0,0,0-.014.044,3.034,3.034,0,0,1,.152.675,3.509,3.509,0,0,1,.007.551c.095-.072.2-.145.305-.218Zm0,0" transform="translate(-367.159 -474.99)"/><path class="a" d="M382.874,482.907a1.666,1.666,0,0,0-1.6-.123c-.69.268-2.221.769-2.9,1.132a3.407,3.407,0,0,1,.776.668c.044-.029.087-.066.138-.095l.5-.276c.726-.4,2.286-.951,3.084-1.306Zm0,0" transform="translate(-353.484 -467.123)"/><path class="a" d="M243.068,327.4a7.9,7.9,0,1,0-7.9-7.9,7.9,7.9,0,0,0,7.9,7.9Zm-2.758-4.775c.073-.261.145-.522.225-.776.094-.3.174-.334.45-.2a4.3,4.3,0,0,0,1.488.443,1.783,1.783,0,0,0,.973-.13.756.756,0,0,0,.181-1.328,2.361,2.361,0,0,0-.552-.327,13.634,13.634,0,0,1-1.524-.682,2.157,2.157,0,0,1-1.219-2.054,2.263,2.263,0,0,1,1.655-2.1c.406-.145.406-.145.414-.566v-.428c.007-.319.065-.377.377-.385h.3c.675,0,.675,0,.682.675,0,.479,0,.479.479.559a4.39,4.39,0,0,1,1.052.312.309.309,0,0,1,.2.406c-.087.29-.167.588-.261.878s-.174.312-.443.189a3.411,3.411,0,0,0-1.669-.334,1.15,1.15,0,0,0-.443.094.633.633,0,0,0-.16,1.125,2.981,2.981,0,0,0,.726.406,13.561,13.561,0,0,1,1.321.6,2.369,2.369,0,0,1,.762,3.607,2.5,2.5,0,0,1-1.314.842.37.37,0,0,0-.319.421c.007.232,0,.465,0,.7a.291.291,0,0,1-.312.327c-.254.007-.5.007-.755,0a.306.306,0,0,1-.326-.341c0-.167,0-.341-.007-.508-.007-.377-.015-.392-.377-.45a4.815,4.815,0,0,1-1.342-.385c-.327-.152-.356-.239-.262-.588Zm0,0" transform="translate(-223.272 -311.606)"/></svg>