<svg xmlns="http://www.w3.org/2000/svg" width="31.032" height="24.337" viewBox="0 0 31.032 24.337"><defs><style>.a{fill:#f08e3c;}</style></defs><path class="a" d="M133.882,498.647a6.2,6.2,0,0,0-2.158.79,38.141,38.141,0,0,0-3.95,2.3c-.077.051-.18.122-.257.167a4.65,4.65,0,0,1-1.586.649,50.523,50.523,0,0,1-7.8.751l-.27.013a.383.383,0,1,1-.058-.764l6.878-.655a1.45,1.45,0,0,0-.3-2.884l-6.114-.077a6.8,6.8,0,0,1-1.484-.225,9.636,9.636,0,0,0-7.347.43,1.426,1.426,0,0,0-1.323-.681l-2.639.173a1.548,1.548,0,0,0-1.477,1.638l.424,5.857a1.571,1.571,0,0,0,1.7,1.426l2.639-.173a1.4,1.4,0,0,0,1.208-.848l11.586.5a6.2,6.2,0,0,0,3.635-.617l.334-.173,8.753-5.125a1.442,1.442,0,0,0,.752-1.175,1.19,1.19,0,0,0-1.15-1.3Zm-26.787,7.52a.868.868,0,1,1,.9-.867.883.883,0,0,1-.9.867Zm0,0" transform="translate(-104.001 -483.22)"/><path class="a" d="M393.825,494.116a39.113,39.113,0,0,1,3.757-2.139,8.817,8.817,0,0,1,1-.437,1.478,1.478,0,0,0-1.432-.122c-.983.392-2.794,1.265-3.719,1.766a.089.089,0,0,0-.013.039,2.685,2.685,0,0,1,.135.6,3.1,3.1,0,0,1,.006.488c.084-.064.173-.128.27-.193Zm0,0" transform="translate(-370.18 -476.866)"/><path class="a" d="M382.357,482.876a1.474,1.474,0,0,0-1.413-.109c-.61.237-1.965.68-2.569,1a3.016,3.016,0,0,1,.687.591c.038-.026.077-.058.122-.084l.443-.244c.642-.353,2.023-.841,2.729-1.156Zm0,0" transform="translate(-356.349 -468.908)"/><path class="a" d="M242.16,325.581a6.987,6.987,0,1,0-6.988-6.987,6.987,6.987,0,0,0,6.988,6.987Zm-2.441-4.226c.064-.231.129-.462.2-.687.083-.263.154-.3.4-.173a3.8,3.8,0,0,0,1.316.392,1.577,1.577,0,0,0,.861-.115.669.669,0,0,0,.161-1.175,2.089,2.089,0,0,0-.488-.289,12.06,12.06,0,0,1-1.349-.6,1.908,1.908,0,0,1-1.079-1.818,2,2,0,0,1,1.464-1.856c.36-.129.36-.129.366-.5v-.379c.006-.283.058-.334.334-.341h.263c.6,0,.6,0,.6.6,0,.424,0,.424.424.495a3.885,3.885,0,0,1,.931.276.273.273,0,0,1,.18.36c-.077.257-.148.52-.231.777s-.154.276-.392.167a3.019,3.019,0,0,0-1.477-.3,1.018,1.018,0,0,0-.392.083.56.56,0,0,0-.141,1,2.637,2.637,0,0,0,.642.36,12,12,0,0,1,1.169.527,2.1,2.1,0,0,1,.674,3.192,2.215,2.215,0,0,1-1.163.745.327.327,0,0,0-.283.373c.006.205,0,.411,0,.616a.257.257,0,0,1-.276.289c-.225.006-.443.006-.668,0a.27.27,0,0,1-.289-.3c0-.148,0-.3-.007-.45-.006-.334-.013-.347-.334-.4a4.26,4.26,0,0,1-1.188-.341c-.289-.135-.315-.212-.231-.52Zm0,0" transform="translate(-224.642 -311.606)"/></svg>