<svg xmlns="http://www.w3.org/2000/svg" width="19.622" height="16.023" viewBox="0 0 19.622 16.023"><defs><style>.a{stroke:#000;stroke-width:0.6px;}</style></defs><g transform="translate(0.3 -31.2)"><g transform="translate(0 31.5)"><g transform="translate(0 0)"><path class="a" d="M18.451,31.5H.571a.571.571,0,1,0,0,1.142h17.88a.571.571,0,1,0,0-1.142Z" transform="translate(0 -31.5)"/></g></g><g transform="translate(0 36.241)"><g transform="translate(0 0)"><path class="a" d="M13.138,114.5H.571a.571.571,0,1,0,0,1.142H13.138a.571.571,0,1,0,0-1.142Z" transform="translate(0 -114.5)"/></g></g><g transform="translate(0 41.04)"><g transform="translate(0 0)"><path class="a" d="M18.451,198.5H.571a.571.571,0,1,0,0,1.142h17.88a.571.571,0,1,0,0-1.142Z" transform="translate(0 -198.5)"/></g></g><g transform="translate(0 45.781)"><g transform="translate(0 0)"><path class="a" d="M8.626,281.5H.571a.571.571,0,1,0,0,1.142H8.626a.571.571,0,1,0,0-1.142Z" transform="translate(0 -281.5)"/></g></g></g></svg>