<svg xmlns="http://www.w3.org/2000/svg" width="18.199" height="24.443" viewBox="0 0 18.199 24.443"><defs><style>.a{fill:#f08e3c;}</style></defs><g transform="translate(-51.988 -0.001)"><g transform="translate(51.988 0.001)"><g transform="translate(0 0)"><path class="a" d="M143.743,1.853h-1.788a.5.5,0,0,1-.471-.376A1.82,1.82,0,0,0,139.633,0a1.851,1.851,0,0,0-1.851,1.506.471.471,0,0,1-.471.345h-1.726V4.991h8.158Z" transform="translate(-130.564 -0.001)"/><path class="a" d="M70.187,81.4V63.423a1.286,1.286,0,0,0-1.283-1.29q-.049,0-.1,0h-2.7v1.6c0,.251-.157.6-.408.6H56.444c-.251,0-.376-.345-.376-.6v-1.6h-2.7a1.286,1.286,0,0,0-1.377,1.189q0,.049,0,.1V81.4a1.412,1.412,0,0,0,1.38,1.443H68.806A1.412,1.412,0,0,0,70.187,81.4ZM58.546,77.26,56.1,79.55a.439.439,0,0,1-.314.157.5.5,0,0,1-.345-.157l-1.286-1.318a.478.478,0,0,1,.69-.659l.941,1,2.134-2.008a.471.471,0,0,1,.628.69Zm0-5.02h0L56.1,74.53a.439.439,0,0,1-.314.157.5.5,0,0,1-.345-.157l-1.286-1.318a.478.478,0,0,1,.69-.659l.941,1,2.134-2.008a.471.471,0,0,1,.628.69Zm0-5.02L56.1,69.51a.439.439,0,0,1-.314.157.5.5,0,0,1-.345-.157l-1.286-1.318a.478.478,0,0,1,.69-.659l.941,1,2.134-2.008a.471.471,0,0,1,.628.69Zm9.131,11.86H60.46a.471.471,0,1,1,0-.941h7.217a.471.471,0,0,1,0,.941Zm0-5.02H60.46a.471.471,0,0,1,0-.941h7.217a.471.471,0,0,1,0,.941Zm0-5.02H60.46a.471.471,0,0,1,0-.941h7.217a.471.471,0,0,1,0,.941Z" transform="translate(-51.988 -58.401)"/></g></g></g></svg>