<svg xmlns="http://www.w3.org/2000/svg" width="18.825" height="25.284" viewBox="0 0 18.825 25.284"><defs><style>.a{fill:#fff;}</style></defs><g transform="translate(-51.988 -0.001)"><g transform="translate(51.988 0.001)"><g transform="translate(0 0)"><path class="a" d="M144.024,1.917h-1.85a.519.519,0,0,1-.487-.389A1.882,1.882,0,0,0,139.772,0a1.915,1.915,0,0,0-1.915,1.558.487.487,0,0,1-.487.357h-1.785V5.163h8.439Z" transform="translate(-130.392 -0.001)"/><path class="a" d="M70.813,82.064v-18.6a1.331,1.331,0,0,0-1.327-1.334q-.051,0-.1,0H66.593v1.655c0,.26-.162.617-.422.617H56.6c-.26,0-.389-.357-.389-.617V62.136H53.416a1.331,1.331,0,0,0-1.424,1.23q0,.05,0,.1v18.6a1.46,1.46,0,0,0,1.427,1.493H69.385a1.461,1.461,0,0,0,1.428-1.492ZM58.772,77.78,56.24,80.149a.454.454,0,0,1-.325.162.52.52,0,0,1-.357-.162l-1.331-1.363a.494.494,0,0,1,.714-.682l.974,1.039,2.207-2.077a.487.487,0,0,1,.649.714Zm0-5.193h0L56.24,74.956a.454.454,0,0,1-.325.162.519.519,0,0,1-.357-.162l-1.331-1.363a.494.494,0,0,1,.714-.682l.974,1.039,2.207-2.077a.487.487,0,0,1,.649.714Zm0-5.193L56.24,69.763a.454.454,0,0,1-.325.162.519.519,0,0,1-.357-.162L54.228,68.4a.494.494,0,0,1,.714-.682l.974,1.039,2.207-2.077a.487.487,0,0,1,.649.714Zm9.445,12.268H60.751a.487.487,0,0,1,0-.974h7.465a.487.487,0,0,1,0,.974Zm0-5.193H60.751a.487.487,0,0,1,0-.974h7.465a.487.487,0,0,1,0,.974Zm0-5.193H60.751a.487.487,0,0,1,0-.974h7.465a.487.487,0,0,1,0,.974Z" transform="translate(-51.988 -58.273)"/></g></g></g></svg>