<svg xmlns="http://www.w3.org/2000/svg" width="15.851" height="20.607" viewBox="0 0 15.851 20.607"><defs><style>.a{fill:#F7903B;}</style></defs><path class="a" d="M20.62,10.508H19.431V8.195A4.756,4.756,0,1,0,9.92,8.13v2.378H8.731A1.987,1.987,0,0,0,6.75,12.489V22a1.987,1.987,0,0,0,1.981,1.981H20.62A1.987,1.987,0,0,0,22.6,22V12.489A1.987,1.987,0,0,0,20.62,10.508ZM15.369,16.69V20.1a.71.71,0,0,1-.659.713.694.694,0,0,1-.728-.694V16.69a1.585,1.585,0,1,1,1.387,0Zm2.675-6.182H11.307V8.13a3.368,3.368,0,0,1,6.737,0Z" transform="translate(-6.75 -3.374)"/></svg>