<svg xmlns="http://www.w3.org/2000/svg" width="30" height="30" viewBox="0 0 30 30"><defs><style>.a{fill:#eaf0f8;}.b{fill:#275189;}</style></defs><rect class="a" width="30" height="30" rx="8" transform="translate(0 0)"/><g transform="translate(-2.339 5)"><path class="b" d="M21.905,8.042V6.574a4.074,4.074,0,1,0-8.147,0V8.042A2.138,2.138,0,0,0,11.8,10.189v5.147A2.156,2.156,0,0,0,13.963,17.5h7.753a2.156,2.156,0,0,0,2.163-2.163V10.189A2.152,2.152,0,0,0,21.905,8.042Zm-3.126,6.6a.244.244,0,0,1-.237.3H17.105a.244.244,0,0,1-.237-.3l.474-1.863a1.135,1.135,0,0,1-.679-1.042,1.153,1.153,0,1,1,1.626,1.042Zm1.058-6.616H15.826V6.589a2.005,2.005,0,0,1,4.011,0Z"/></g></svg>