<svg xmlns="http://www.w3.org/2000/svg" width="186" height="31.738" viewBox="0 0 186 31.738"><defs><style>.a,.b{fill:#053980;}.a,.c,.d{fill-rule:evenodd;}.c{fill:#084185;}.d{fill:#0e69b0;}</style></defs><g transform="translate(-608.749 -473.085)"><g transform="translate(645.938 484.417)"><path class="a" d="M377.18,22.543h.341a1.689,1.689,0,0,0,.413-.029.221.221,0,0,0,.13-.1.274.274,0,0,0,.048-.173.254.254,0,0,0-.062-.182.288.288,0,0,0-.173-.091h-.7Zm-.48,1.315v-2.28h.96a1.6,1.6,0,0,1,.533.062.48.48,0,0,1,.264.216.658.658,0,0,1,.1.36.619.619,0,0,1-.149.427.768.768,0,0,1-.451.211,1.132,1.132,0,0,1,.245.187,2.717,2.717,0,0,1,.259.374l.278.442h-.547l-.331-.48a3.127,3.127,0,0,0-.245-.336.365.365,0,0,0-.139-.1.859.859,0,0,0-.23,0h-.1v.96Z" transform="translate(-231.143 -20.531)"/><path class="a" d="M377.859,20.211a1.954,1.954,0,1,0,.567,1.4,1.92,1.92,0,0,0-.567-1.378m-1.373-.83a2.208,2.208,0,1,1-2.042,1.361A2.2,2.2,0,0,1,376.486,19.4Z" transform="translate(-229.882 -19.4)"/><path class="b" d="M296.964,31.857a5.28,5.28,0,0,1-1.238-.139,1.858,1.858,0,0,1-.792-.389,1.484,1.484,0,0,1-.418-.71,4.03,4.03,0,0,1-.125-1.075V25.156h1.493V29.5a1.815,1.815,0,0,0,.058.48.711.711,0,0,0,.192.336.869.869,0,0,0,.37.192,2.554,2.554,0,0,0,.59.058H301.1v1.277Zm-10.378-2.693h3.264l-1.632-2.645Zm3.97,1.152h-4.671l-.96,1.541h-1.733l3.922-6.192a1.752,1.752,0,0,1,.427-.48,1.44,1.44,0,0,1,1.416,0,1.737,1.737,0,0,1,.422.48l3.9,6.192h-1.743Zm-10.431,1.541v-6.72h1.507v6.72Zm-3.432-4.608a1.345,1.345,0,0,0-.058-.432.48.48,0,0,0-.2-.259.931.931,0,0,0-.389-.115,5.4,5.4,0,0,0-.61-.029h-3.7v2.045h3.7a4.258,4.258,0,0,0,.6-.034.96.96,0,0,0,.389-.115.48.48,0,0,0,.2-.254,1.406,1.406,0,0,0,.058-.442Zm-1,4.608-3.951-2.439v2.439H270.25V25.165h5.28a7.364,7.364,0,0,1,1.219.086,2.05,2.05,0,0,1,.826.312,1.325,1.325,0,0,1,.48.619,2.784,2.784,0,0,1,.149.989v.48a2.5,2.5,0,0,1-.158.96,1.3,1.3,0,0,1-.48.6,2.2,2.2,0,0,1-.835.312,7.277,7.277,0,0,1-1.2.086h-1.19l3.96,2.271Zm-13.657-2.693h3.269l-1.637-2.645Zm3.97,1.152h-4.671l-.96,1.541h-1.733l3.917-6.192a1.833,1.833,0,0,1,.427-.48A1.166,1.166,0,0,1,263.7,25a1.138,1.138,0,0,1,.7.187,1.834,1.834,0,0,1,.427.48l3.9,6.192h-1.743Zm-12.649,1.541a5.281,5.281,0,0,1-1.239-.125,1.81,1.81,0,0,1-.787-.389,1.44,1.44,0,0,1-.422-.71,4.031,4.031,0,0,1-.125-1.075v-4.4h1.5V29.5a1.833,1.833,0,0,0,.053.48.711.711,0,0,0,.192.336.869.869,0,0,0,.37.192,2.553,2.553,0,0,0,.59.058H257.5v1.277Zm-10.378-2.693h3.264L244.6,26.519Zm3.97,1.152h-4.676l-.96,1.541h-1.728l3.917-6.192a1.752,1.752,0,0,1,.427-.48,1.44,1.44,0,0,1,1.416,0,1.834,1.834,0,0,1,.427.48l3.9,6.192h-1.709Zm-15.64,1.541V30.59h5.132a1.1,1.1,0,0,0,.581-.115.48.48,0,0,0,.182-.456v-.365a.528.528,0,0,0-.182-.446.96.96,0,0,0-.581-.13H233.22a3.581,3.581,0,0,1-.931-.106,1.33,1.33,0,0,1-.59-.312,1.176,1.176,0,0,1-.3-.533,2.9,2.9,0,0,1-.086-.754v-.331a3.072,3.072,0,0,1,.11-.874,1.32,1.32,0,0,1,.336-.586,1.349,1.349,0,0,1,.6-.326,3.3,3.3,0,0,1,.869-.1h2.1v1.282h-1.963a.816.816,0,0,0-.509.13.677.677,0,0,0-.163.538v.216a.561.561,0,0,0,.149.446.758.758,0,0,0,.514.134h3.159a4.185,4.185,0,0,1,.96.091,1.493,1.493,0,0,1,.638.3,1.1,1.1,0,0,1,.355.528,2.337,2.337,0,0,1,.11.778v.533a2.468,2.468,0,0,1-.11.8,1.138,1.138,0,0,1-.355.533,1.555,1.555,0,0,1-.638.307,4.157,4.157,0,0,1-.96.1Z" transform="translate(-155.545 -22.363)"/><path class="a" d="M140.311,29.492l2.256-3.658,2.261,3.658Zm5.976,2.328h1.2L143.576,25.6a1.522,1.522,0,0,0-.389-.432,1,1,0,0,0-.586-.144,1.027,1.027,0,0,0-.6.144,1.521,1.521,0,0,0-.389.432l-3.936,6.24h1.19l1.046-1.68h5.333Zm-13.187,0h1.056V26H137.2v-.816h-7.138V26H133.1Zm-3.36,0v-.806h-4.023a2.88,2.88,0,0,1-.706-.072,1.147,1.147,0,0,1-.523-.274,1.056,1.056,0,0,1-.283-.48,2.4,2.4,0,0,1-.072-.61V25.186h-1.018v4.445a4.08,4.08,0,0,0,.125,1.08,1.272,1.272,0,0,0,.37.629,1.656,1.656,0,0,0,.73.36,5.314,5.314,0,0,0,1.262.12Zm-9.308-6.634h-1.042v4.383a2.212,2.212,0,0,1-.082.643,1.085,1.085,0,0,1-.3.48,1.157,1.157,0,0,1-.533.259,3.447,3.447,0,0,1-.667.058h-2.439a3.447,3.447,0,0,1-.667-.058,1.157,1.157,0,0,1-.533-.259,1.143,1.143,0,0,1-.3-.48,2.214,2.214,0,0,1-.082-.643V25.186h-1.061v4.445a4.075,4.075,0,0,0,.12,1.08,1.272,1.272,0,0,0,.37.629,1.685,1.685,0,0,0,.73.36,5.314,5.314,0,0,0,1.262.12h2.722a5.372,5.372,0,0,0,1.272-.12,1.656,1.656,0,0,0,.73-.36,1.272,1.272,0,0,0,.37-.629,3.888,3.888,0,0,0,.125-1.08Zm-17.42,6.634h5.314a4.023,4.023,0,0,0,.96-.1,1.44,1.44,0,0,0,.571-.269.96.96,0,0,0,.3-.446,2.482,2.482,0,0,0,.1-.773v-.571a2.443,2.443,0,0,0-.1-.744.907.907,0,0,0-.3-.442,1.392,1.392,0,0,0-.571-.269,4.287,4.287,0,0,0-.96-.091h-3.394a1.119,1.119,0,0,1-.739-.211.9.9,0,0,1-.254-.691v-.235a.994.994,0,0,1,.278-.792,1.142,1.142,0,0,1,.725-.206h1.824v-.8h-1.973a3.072,3.072,0,0,0-.859.1,1.061,1.061,0,0,0-.806.782,3.054,3.054,0,0,0-.1.859v.36a3.13,3.13,0,0,0,.077.734.96.96,0,0,0,.25.442,1.2,1.2,0,0,0,.514.269,3.538,3.538,0,0,0,.926.1h3.442a1.31,1.31,0,0,1,.782.2.845.845,0,0,1,.307.706v.394a.816.816,0,0,1-.322.73,1.517,1.517,0,0,1-.782.163h-5.208ZM100.5,25.186h-.96v5.588l-5.808-5.559a.581.581,0,0,0-.206-.13.96.96,0,0,0-.35-.053.85.85,0,0,0-.48.11.293.293,0,0,0-.115.269V31.82h.936V26.333l5.76,5.386a.821.821,0,0,0,.312.2,1.008,1.008,0,0,0,.374.062.773.773,0,0,0,.427-.1.331.331,0,0,0,.1-.278Zm-11.65,2.261v2.122a2.655,2.655,0,0,1-.067.648.96.96,0,0,1-.278.48,1,1,0,0,1-.518.254A3.2,3.2,0,0,1,87.34,31H84.714a3.543,3.543,0,0,1-.677-.053,1.018,1.018,0,0,1-.518-.254.96.96,0,0,1-.269-.48,3.083,3.083,0,0,1-.053-.634V27.447a2.974,2.974,0,0,1,.077-.619,1.013,1.013,0,0,1,.264-.48,1.051,1.051,0,0,1,.518-.264A3.216,3.216,0,0,1,84.714,26H87.33a2.981,2.981,0,0,1,.653.062,1.037,1.037,0,0,1,.514.264,1.1,1.1,0,0,1,.274.48A2.525,2.525,0,0,1,88.847,27.447Zm-4.2,4.373H87.4a5.372,5.372,0,0,0,1.272-.12,1.656,1.656,0,0,0,.73-.36,1.272,1.272,0,0,0,.37-.629,3.888,3.888,0,0,0,.125-1.08V27.375a4.042,4.042,0,0,0-.125-1.075,1.287,1.287,0,0,0-.37-.634,1.656,1.656,0,0,0-.73-.36,5.371,5.371,0,0,0-1.272-.12H84.647a5.506,5.506,0,0,0-1.258.12,1.709,1.709,0,0,0-.73.36,1.286,1.286,0,0,0-.346.634,4.041,4.041,0,0,0-.125,1.075v2.256a3.888,3.888,0,0,0,.125,1.08,1.272,1.272,0,0,0,.37.629,1.656,1.656,0,0,0,.73.36A5.252,5.252,0,0,0,84.647,31.82Zm-4.964,0v-.806H75.017a3.513,3.513,0,0,1-.677-.058,1.037,1.037,0,0,1-.523-.269,1.071,1.071,0,0,1-.269-.48,3.068,3.068,0,0,1-.058-.629V27.466a2.976,2.976,0,0,1,.058-.619,1.061,1.061,0,0,1,.269-.48,1.09,1.09,0,0,1,.509-.269,2.962,2.962,0,0,1,.682-.067h4.676v-.816H74.931a5.573,5.573,0,0,0-1.262.12,1.766,1.766,0,0,0-.73.36,1.286,1.286,0,0,0-.37.634,4.042,4.042,0,0,0-.12,1.075V29.66a4.075,4.075,0,0,0,.12,1.08,1.31,1.31,0,0,0,.37.629,1.709,1.709,0,0,0,.73.36,5.315,5.315,0,0,0,1.262.12Z" transform="translate(-72.448 -22.379)"/></g><path class="c" d="M36.6,15.11h7.758L48.794,23.9H41.041Z" transform="translate(590.651 465.059)"/><path class="d" d="M36.6,40.941h7.758l4.436-8.791H41.041Z" transform="translate(590.651 456.804)"/><path class="d" d="M22.544,1.37H8.535L.52,17.239H14.529Z" transform="translate(608.229 471.715)"/><path class="c" d="M22.544,48.019H8.535L.52,32.15H14.529Z" transform="translate(608.229 456.804)"/></g></svg>