<svg xmlns="http://www.w3.org/2000/svg" width="22.197" height="22.197" viewBox="0 0 22.197 22.197"><defs><style>.a{fill:#f08e3c;stroke:#f08e3c;}</style></defs><g transform="translate(0.5 0.5)"><g transform="translate(7.373)"><path class="a" d="M134.314,2.9a.46.46,0,0,0-.652,0l-1.978,1.978V.461a.461.461,0,1,0-.922,0V4.878L128.785,2.9a.461.461,0,0,0-.652.652L130.9,6.316a.462.462,0,0,0,.652,0l2.765-2.765A.46.46,0,0,0,134.314,2.9Z" transform="translate(-127.998 0)"/></g><g transform="translate(7.373 14.747)"><path class="a" d="M134.314,258.909l-2.764-2.764a.456.456,0,0,0-.15-.1.462.462,0,0,0-.5.1l-2.764,2.764a.461.461,0,0,0,.652.652l1.978-1.978V262a.461.461,0,1,0,.922,0v-4.417l1.978,1.978a.461.461,0,0,0,.652-.652Z" transform="translate(-127.998 -256.01)"/></g><g transform="translate(0 7.373)"><path class="a" d="M6.416,131.048a.465.465,0,0,0-.1-.15l-2.765-2.765a.461.461,0,0,0-.652.652l1.978,1.978H.461a.461.461,0,1,0,0,.922H4.878L2.9,133.663a.461.461,0,1,0,.652.652l2.765-2.765a.462.462,0,0,0,.1-.5Z" transform="translate(0 -127.998)"/></g><g transform="translate(14.747 7.373)"><path class="a" d="M262,130.763h-4.417l1.978-1.978a.461.461,0,0,0-.652-.652l-2.765,2.765a.462.462,0,0,0,0,.652l2.765,2.765a.461.461,0,0,0,.652-.652l-1.978-1.978H262a.461.461,0,1,0,0-.922Z" transform="translate(-256.01 -127.998)"/></g><g transform="translate(8.295 8.295)"><path class="a" d="M146.3,144a2.3,2.3,0,1,0,2.3,2.3A2.307,2.307,0,0,0,146.3,144Zm0,3.686a1.382,1.382,0,1,1,1.382-1.382A1.384,1.384,0,0,1,146.3,147.686Z" transform="translate(-144 -144)"/></g></g></svg>