<svg xmlns="http://www.w3.org/2000/svg" width="32.344" height="32.344" viewBox="0 0 32.344 32.344"><defs><style>.a{fill:#fff;stroke:#fff;}</style></defs><g transform="translate(0.5 0.5)"><g transform="translate(10.902)"><path class="a" d="M137.338,4.288a.681.681,0,0,0-.963,0l-2.925,2.925V.681a.681.681,0,1,0-1.363,0V7.213l-2.925-2.925a.681.681,0,0,0-.963.963l4.088,4.088a.683.683,0,0,0,.963,0l4.088-4.088A.681.681,0,0,0,137.338,4.288Z" transform="translate(-127.998 0)"/></g><g transform="translate(10.902 21.805)"><path class="a" d="M137.338,260.3l-4.088-4.088a.683.683,0,0,0-.743-.148.683.683,0,0,0-.222.148L128.2,260.3a.681.681,0,1,0,.963.963l2.925-2.925v6.532a.681.681,0,1,0,1.363,0v-6.532l2.925,2.925a.681.681,0,1,0,.963-.963Z" transform="translate(-127.998 -256.01)"/></g><g transform="translate(0 10.902)"><path class="a" d="M9.487,132.508a.688.688,0,0,0-.147-.221L5.251,128.2a.681.681,0,0,0-.963.963l2.925,2.925H.681a.681.681,0,1,0,0,1.363H7.213l-2.925,2.925a.681.681,0,1,0,.963.963L9.34,133.25a.683.683,0,0,0,.147-.742Z" transform="translate(0 -127.998)"/></g><g transform="translate(21.805 10.902)"><path class="a" d="M264.867,132.087h-6.532l2.925-2.925a.681.681,0,1,0-.963-.963l-4.088,4.088a.683.683,0,0,0,0,.963l4.088,4.088a.681.681,0,1,0,.963-.963l-2.925-2.925h6.532a.681.681,0,1,0,0-1.363Z" transform="translate(-256.01 -127.998)"/></g><g transform="translate(12.265 12.265)"><path class="a" d="M147.407,144a3.407,3.407,0,1,0,3.407,3.407A3.411,3.411,0,0,0,147.407,144Zm0,5.451a2.044,2.044,0,1,1,2.044-2.044A2.047,2.047,0,0,1,147.407,149.451Z" transform="translate(-144 -144)"/></g></g></svg>