<svg xmlns="http://www.w3.org/2000/svg" width="25" height="26.594" viewBox="0 0 25 26.594"><defs><style>.a{fill:#fff;}</style></defs><g transform="translate(-228 -27.407)"><g transform="translate(228 41)"><rect class="a" width="25" height="4" rx="1" transform="translate(0 0)"/><rect class="a" width="25" height="4" rx="1" transform="translate(0 9)"/></g><path class="a" d="M7.393,13.7h16.65a.629.629,0,0,1,.662.59v2.753a.629.629,0,0,1-.662.59H7.393V19.9a1.349,1.349,0,0,1-2.259.834L.388,16.5a1.091,1.091,0,0,1,0-1.668l4.746-4.23a1.349,1.349,0,0,1,2.259.834Z" transform="translate(228 17.148)"/></g></svg>