<svg xmlns="http://www.w3.org/2000/svg" width="25" height="26.594" viewBox="0 0 25 26.594"><defs><style>.a{fill:#fff;}</style></defs><g transform="translate(-23.705 -18.406)"><g transform="translate(24 31.933)"><rect class="a" width="25" height="4" rx="1" transform="translate(-0.295 0.066)"/><rect class="a" width="25" height="4" rx="1" transform="translate(-0.295 9.066)"/></g><path class="a" d="M17.312,13.7H.662a.629.629,0,0,0-.662.59v2.753a.629.629,0,0,0,.662.59h16.65V19.9a1.349,1.349,0,0,0,2.259.834l4.746-4.23a1.091,1.091,0,0,0,0-1.668l-4.746-4.23a1.349,1.349,0,0,0-2.259.834Z" transform="translate(24 8.148)"/></g></svg>
