<svg xmlns="http://www.w3.org/2000/svg" width="21" height="21" viewBox="0 0 21 21"><defs><style>.a{fill:#fdf4ed;}.b{fill:#f48122;stroke:#f48122;stroke-width:0.4px;}</style></defs><g transform="translate(-294.5 -271.5)"><path class="a" d="M10.5,0A10.5,10.5,0,1,1,0,10.5,10.5,10.5,0,0,1,10.5,0Z" transform="translate(294.5 271.5)"/><path class="b" d="M13.43,8.209l.936,1.156H9.3V4.333l1.133.955.555-.685L8.86,2.81,6.736,4.6l.555.685,1.133-.955V9.365H3.353L4.29,8.209l-.672-.567L1.86,9.81l1.758,2.167.672-.567-.936-1.156h5.07v5.032l-1.133-.955-.555.685L8.86,16.81l2.124-1.793-.555-.685L9.3,15.287V10.255h5.07l-.936,1.156.672.567L15.86,9.81,14.1,7.643Z" transform="translate(296.14 272.19)"/></g></svg>