<svg xmlns="http://www.w3.org/2000/svg" xmlns:xlink="http://www.w3.org/1999/xlink" width="30" height="30" viewBox="0 0 30 30"><defs><style>.a{fill:#fdf4ed;}.b{fill:url(#a);}</style><linearGradient id="a" x1="0.5" x2="0.5" y2="1" gradientUnits="objectBoundingBox"><stop offset="0" stop-color="#f7903b"/><stop offset="1" stop-color="#f2a165"/></linearGradient></defs><g transform="translate(0 0)"><rect class="a" width="30" height="30" rx="8" transform="translate(0 0)"/><path class="b" d="M13.357,11.89a3.676,3.676,0,0,0-2.269.776L7.2,10.286a3.514,3.514,0,0,0,0-1.549l3.889-2.38a3.675,3.675,0,0,0,2.269.776A3.606,3.606,0,0,0,17,3.567a3.644,3.644,0,0,0-7.286,0,3.507,3.507,0,0,0,.086.774L5.912,6.721a3.676,3.676,0,0,0-2.269-.776,3.568,3.568,0,1,0,0,7.134A3.676,3.676,0,0,0,5.912,12.3L9.8,14.683a3.507,3.507,0,0,0-.086.774,3.644,3.644,0,1,0,3.643-3.567Z" transform="translate(6.5 5.488)"/></g></svg>