<svg xmlns="http://www.w3.org/2000/svg" width="46.902" height="42.212" viewBox="0 0 46.902 42.212"><defs><style>.a{fill:#a7a7a7;}</style></defs><g transform="translate(0 0)"><path class="a" d="M28.209,20.7a7.5,7.5,0,1,1-7.5-7.5A7.5,7.5,0,0,1,28.209,20.7Z" transform="translate(2.747 2.747)"/><path class="a" d="M19.416,3,15.124,7.69H7.69A4.7,4.7,0,0,0,3,12.38V40.522a4.7,4.7,0,0,0,4.69,4.69H45.212a4.7,4.7,0,0,0,4.69-4.69V12.38a4.7,4.7,0,0,0-4.69-4.69H37.778L33.487,3Zm7.035,35.177A11.726,11.726,0,1,1,38.177,26.451,11.73,11.73,0,0,1,26.451,38.177Z" transform="translate(-3 -3)"/></g></svg>