<svg xmlns="http://www.w3.org/2000/svg" width="46.395" height="33.139" viewBox="0 0 46.395 33.139"><defs><style>.a{fill:#fff;}</style></defs><g transform="translate(0 -68.267)"><g transform="translate(0 68.267)"><g transform="translate(0 0)"><path class="a" d="M41.424,68.267H4.971A4.971,4.971,0,0,0,0,73.238v23.2a4.971,4.971,0,0,0,4.971,4.971H41.424A4.971,4.971,0,0,0,46.4,96.435v-23.2A4.971,4.971,0,0,0,41.424,68.267Zm1.657,19.2L32.654,77.037a1.657,1.657,0,0,0-2.343,0L16.57,90.778l-5.456-5.456a1.657,1.657,0,0,0-2.343,0L3.314,90.778V73.238a1.657,1.657,0,0,1,1.657-1.657H41.424a1.657,1.657,0,0,1,1.657,1.657V87.465Z" transform="translate(0 -68.267)"/></g></g><g transform="translate(9.942 74.895)"><circle class="a" cx="4.971" cy="4.971" r="4.971"/></g></g></svg>