<svg xmlns="http://www.w3.org/2000/svg" xmlns:xlink="http://www.w3.org/1999/xlink" width="30" height="30" viewBox="0 0 30 30"><defs><style>.a{fill:#fdf4ed;}.b{fill:url(#a);}</style><linearGradient id="a" x1="0.5" x2="0.5" y2="1" gradientUnits="objectBoundingBox"><stop offset="0" stop-color="#f7903b"/><stop offset="1" stop-color="#f2a165"/></linearGradient></defs><g transform="translate(-64 -63)"><g transform="translate(64 63)"><rect class="a" width="30" height="30" rx="8" transform="translate(0 0)"/></g><g transform="translate(66.383 -41.456)"><g transform="translate(3.591 111.456)"><path class="b" d="M88.124,485.436V478.4a3.44,3.44,0,0,1-.306.264,3.547,3.547,0,0,1-.306.209,3.143,3.143,0,0,1-1.144.418,11.149,11.149,0,0,1-1.666.051H80.788a.311.311,0,0,1-.043,0v.251c0,.03,0,.059,0,.089a.3.3,0,0,1-.3.294c-.292.014-.588,0-.882,0H78.142c-.125,0-.249,0-.374,0a.3.3,0,0,1-.317-.314c0-.105,0-.213,0-.318a.243.243,0,0,1-.039,0h-.027c-.555.008-1.113,0-1.668,0H73.235a5.975,5.975,0,0,1-1.832-.15,3.631,3.631,0,0,1-.715-.318,3.45,3.45,0,0,1-.306-.2,3.138,3.138,0,0,1-.306-.262v7.669c0,.057,0,.113,0,.17a1.034,1.034,0,0,0,1.021.957c.133,0,.263,0,.4,0H87.076a1.04,1.04,0,0,0,1.048-1.054Z" transform="translate(-70.075 -470.862)"/><path class="b" d="M88.438,115.759v-.7a1.033,1.033,0,0,0-1.019-.957H82.932V112.59a1.121,1.121,0,0,0-.312-.823,1.107,1.107,0,0,0-.79-.31H77.119c-.051,0-.1,0-.151,0a1.076,1.076,0,0,0-1.062,1.054c-.012.529-.006,1.063,0,1.594H71.448a1.06,1.06,0,0,0-.731.28,1.024,1.024,0,0,0-.317.694v1.407c0,.061,0,.12,0,.18,0,.043.006.083.01.126,0,.006,0,.012,0,.018.01.059.018.118.031.174a2.986,2.986,0,0,0,.127.418s0,0,0,0,0,0,0,0,0,.006,0,.01c.012.028.027.057.041.085.027.053.053.1.082.154a.084.084,0,0,0,.014.022c.039.065.08.13.125.191.018.026.039.049.055.075l-.006-.012a.085.085,0,0,0,.01.014c.035.043.071.085.11.126.059.063.123.124.188.183.027.024.053.047.082.069a.114.114,0,0,0,.016.012l.051.032s-.012-.008-.027-.016c.043.028.084.061.127.089a3.021,3.021,0,0,0,.355.195h0c.118.036.055.022.016.008l.01,0c.035.012.067.026.1.036q.1.033.2.061c.071.018.143.034.216.049l.074.012.041,0c.182.016.366.012.547.012h4.728a.3.3,0,0,1,.043,0v-.489c0-.142-.02-.294.1-.4a.485.485,0,0,1,.355-.077h2.547a.3.3,0,0,1,.292.27.1.1,0,0,1,0,.024v.673a.3.3,0,0,1,.043,0h.027c.541-.01,1.082,0,1.621,0h3.365c.088,0,.174,0,.261-.012l.051-.006.063-.01c.071-.014.145-.028.216-.049s.141-.041.21-.065l.1-.036a2.978,2.978,0,0,0,.363-.2c.039-.024.076-.049.112-.075l.057-.043,0,0h0s.006,0,.006-.006c.029-.022.055-.047.082-.069.065-.057.127-.118.188-.182a1.625,1.625,0,0,0,.11-.126s.006-.006.008-.01c.016-.026.039-.053.057-.077.039-.055.076-.112.108-.168.006-.012.014-.024.02-.034.031-.055.061-.11.088-.166l.039-.081a2.826,2.826,0,0,0,.127-.412c.01-.045.018-.091.027-.136h0v0h0v0h0v-.006a.007.007,0,0,1,0-.006c0-.02.006-.047.008-.063,0-.037.006-.075.008-.112l.006-.176v-.4C88.44,115.976,88.438,115.869,88.438,115.759Zm-6.52-3.24s0,0,0,0h0v0c0,.01,0,.016,0,.006s-.006,0-.008-.006c.01.527.006,1.054,0,1.582H76.925v-1.58c-.006.008-.01.01-.012.008s0-.006,0-.02c-.01.012-.016.014,0,0h0a.086.086,0,0,1,0-.022h0s0-.01,0-.014c-.014,0-.01,0,0-.006s.006-.014.006,0l.014,0v0l.022,0h0a.161.161,0,0,1,.014-.012l-.012.012c.016,0,.029,0,.022,0s0,.006-.008.012h4.707c.061,0,.12,0,.182,0,0,0-.006,0-.008,0s-.01-.01,0-.012c-.006,0,0,0,0,0h.008l-.014-.012.016.012.025,0,.01,0s0-.006,0-.006a.009.009,0,0,1,0,.006c.018,0,.027.008,0,.01v.01l.012,0a.031.031,0,0,1-.012,0v0h0l.01.008s0,0-.008,0,0,.006,0,.01a.1.1,0,0,0,.02.02l-.018-.014Z" transform="translate(-70.393 -111.456)"/></g></g></g></svg>