<svg xmlns="http://www.w3.org/2000/svg" width="33.156" height="33.156" viewBox="0 0 33.156 33.156"><defs><style>.a{fill:#8c8c8d;}</style></defs><circle class="a" cx="1.619" cy="1.619" r="1.619" transform="translate(14.959 22.892)"/><path class="a" d="M16.578,0A16.578,16.578,0,1,0,33.156,16.578,16.569,16.569,0,0,0,16.578,0Zm0,30.566A13.988,13.988,0,1,1,30.566,16.578,13.98,13.98,0,0,1,16.578,30.566Z"/><path class="a" d="M181.181,128.5A5.187,5.187,0,0,0,176,133.681a1.3,1.3,0,1,0,2.59,0,2.59,2.59,0,1,1,2.59,2.59,1.3,1.3,0,0,0-1.3,1.3V140.8a1.3,1.3,0,0,0,2.59,0V138.7a5.181,5.181,0,0,0-1.3-10.2Z" transform="translate(-164.602 -120.179)"/></svg>