<svg xmlns="http://www.w3.org/2000/svg" width="27" height="27" viewBox="0 0 27 27"><defs><style>.a{fill:#fdf4ed;}.b{fill:#f6903c;stroke:#f6903c;fill-rule:evenodd;}</style></defs><g transform="translate(0.262)"><circle class="a" cx="13.5" cy="13.5" r="13.5" transform="translate(-0.262)"/><g transform="translate(9.079 9.187)"><path class="b" d="M.227,0A.276.276,0,0,0,.089.476L4.031,4.421.089,8.366a.278.278,0,0,0,.388.4L4.428,4.818,8.37,8.763a.278.278,0,0,0,.388-.4L4.816,4.421,8.759.476a.278.278,0,0,0-.388-.4L4.428,4.024.477.079A.276.276,0,0,0,.279,0,.262.262,0,0,0,.227,0Z"/></g></g></svg>