<svg xmlns="http://www.w3.org/2000/svg" xmlns:xlink="http://www.w3.org/1999/xlink" width="50" height="50" viewBox="0 0 50 50"><defs><style>.a{fill:url(#a);}.b{fill:#fff;}.c{filter:url(#d);}.d{filter:url(#b);}</style><linearGradient id="a" x1="0.5" x2="0.5" y2="1" gradientUnits="objectBoundingBox"><stop offset="0" stop-color="#f7903b"/><stop offset="1" stop-color="#f2a165"/></linearGradient><filter id="b" x="0" y="0" width="50" height="50" filterUnits="userSpaceOnUse"><feOffset dy="2" input="SourceAlpha"/><feGaussianBlur stdDeviation="3" result="c"/><feFlood flood-color="#747474" flood-opacity="0.161"/><feComposite operator="in" in2="c"/><feComposite in="SourceGraphic"/></filter><filter id="d" x="9.843" y="10.289" width="29.855" height="29.852" filterUnits="userSpaceOnUse"><feOffset dy="2" input="SourceAlpha"/><feGaussianBlur stdDeviation="3" result="e"/><feFlood flood-opacity="0.161"/><feComposite operator="in" in2="e"/><feComposite in="SourceGraphic"/></filter></defs><g transform="translate(-307 -306)"><g class="d" transform="matrix(1, 0, 0, 1, 307, 306)"><circle class="a" cx="16" cy="16" r="16" transform="translate(9 7)"/></g><g class="c" transform="matrix(1, 0, 0, 1, 307, 306)"><path class="b" d="M18.617,17.215l4.234-4.234a.992.992,0,0,0-1.4-1.4l-4.234,4.234L12.98,11.577a.992.992,0,1,0-1.4,1.4l4.234,4.234-4.234,4.234a.992.992,0,0,0,1.4,1.4l4.234-4.234,4.234,4.234a.992.992,0,0,0,1.4-1.4Z" transform="translate(7.56 6)"/></g></g></svg>