<svg xmlns="http://www.w3.org/2000/svg" viewBox="0 0 194.32 19.38">
  <defs>
    <style>.cls-1{fill:#2e2a2b;}</style>
  </defs>
  <g id="Camada_2" data-name="Camada 2">
    <g id="Camada_1-2" data-name="Camada 1">
      <g id="Camada_2-2" data-name="Camada 2">
        <g id="Camada_1-2-2" data-name="Camada 1-2">
          <path class="cls-1" d="M126.43,9l-4.08,5.3-1.73,2.25a1.61,1.61,0,0,1-2.24.39,1.8,1.8,0,0,1-.39-.39q-2.77-3.59-5.52-7.19l-.2-.24a.88.88,0,0,0-.07.53v6.86c0,.36-.09.46-.45.44h-1.7c-.28,0-.35-.07-.35-.34V5.68a.92.92,0,0,1,.48-.85,1.85,1.85,0,0,1,2.35.46l6.44,8.5c.27.37.38.38.66,0C121.79,11,124,8.16,126.1,5.32a1.73,1.73,0,0,1,2.1-.57.93.93,0,0,1,.7,1V16.68c0,.24-.07.32-.32.31h-1.75c-.33,0-.43-.08-.43-.42V9.72Z"/>
          <path class="cls-1" d="M174.23,10.64l4.07-3.53,2.33-2a.71.71,0,0,1,.49-.23h3.42L183.24,6c-1.78,1.5-3.54,3-5.33,4.47-.3.25-.27.36,0,.6,2.11,1.81,4.21,3.64,6.31,5.46l.5.45h-3.56c-.22,0-.34-.16-.47-.28q-3-2.62-6.07-5.27c-.1-.09-.21-.16-.32-.25a.78.78,0,0,0-.07.52v4.84c0,.32,0,.46-.41.44h-2c-.27,0-.35-.06-.35-.34V5.2c0-.25.06-.33.31-.32h2c.32,0,.4.09.4.4V10Z"/>
          <path class="cls-1" d="M5.45,17H.5C.14,17,0,17,0,16.53c0-1,0-1,1-1H9.4a5,5,0,0,0,.77,0,1.38,1.38,0,0,0,1.34-1.42s0-.07,0-.11V14c.06-1.91-.4-2.39-2.31-2.4H3a5.85,5.85,0,0,1-1.38-.16A1.76,1.76,0,0,1,.13,9.82,9.52,9.52,0,0,1,.13,7a2,2,0,0,1,2-2h0A37.06,37.06,0,0,1,6.6,4.9h.1c.33.36.08.8.14,1.2s-.19.26-.38.26H3.68c-.66,0-1.37,0-1.71.7a2.75,2.75,0,0,0,0,2.5,1.48,1.48,0,0,0,1.47.67H10a9.09,9.09,0,0,1,1.28.12,2.07,2.07,0,0,1,1.95,2.18h0A10.77,10.77,0,0,1,13.1,15a2,2,0,0,1-1.53,1.73A7,7,0,0,1,9.63,17Z"/>
          <path class="cls-1" d="M91.38,4.89h2.29c.22,0,.34.16.48.28C95.75,6.57,97.36,8,99,9.39c.31.28.48.26.78,0C101.33,8,103,6.6,104.56,5.2a1.11,1.11,0,0,1,.83-.31h1.69a1.32,1.32,0,0,1-.42.46l-6.11,5.45a.83.83,0,0,0-.31.7v5c0,.37-.09.48-.45.45a7.11,7.11,0,0,0-1.13,0c-.34,0-.39-.1-.39-.41v-5a1.09,1.09,0,0,0-.42-.91C95.94,9,94,7.25,92.07,5.51Z"/>
          <path class="cls-1" d="M44.21,17a44.2,44.2,0,0,1-4.46-.11A2.75,2.75,0,0,1,37,14.14v-.28c-.14-2.86,0-5.73-.07-8.6,0-.3.1-.38.39-.37.49,0,1.12-.15,1.44.1s.09.9.1,1.37v6.49c0,1.8.8,2.61,2.61,2.62h7.06c.4,0,.53.09.52.5,0,1,0,1-1,1Z"/>
          <path class="cls-1" d="M162.25,12.87a12.55,12.55,0,0,0,3.18-.26,2.61,2.61,0,0,0,2.18-2.45,9.58,9.58,0,0,0,0-2.62,2.57,2.57,0,0,0-1.93-2.34A5.25,5.25,0,0,0,164.31,5c-3.54-.14-7.07-.07-10.61-.07-.27,0-.36.07-.36.35V16.63c0,.28.1.33.36.33h1.91c.36,0,.45-.09.45-.45V12.57c1.83,1.14,3.61,2.14,5.29,3.29a5.65,5.65,0,0,0,3.93,1.1,23.62,23.62,0,0,1,2.38,0v-.1L160.89,13A6.87,6.87,0,0,1,162.25,12.87Zm-2.34-2h-3.46c-.31,0-.41-.08-.4-.4V7.54c0-.29,0-.42.39-.42h6.8c1.46,0,1.75.37,1.75,1.84v.21c0,1.2-.33,1.54-1.53,1.59s-2.37,0-3.55,0Z"/>
          <path class="cls-1" d="M148.3,14l-5.1-8.1a2.41,2.41,0,0,0-.95-1,2.36,2.36,0,0,0-3.2,1c-1.4,2.24-2.82,4.47-4.24,6.7L132,17l2.92,0c.23,0,.29-.15.38-.29.46-.73.92-1.45,1.36-2.19a.55.55,0,0,1,.57-.32h7.69a.54.54,0,0,1,.53.3c.45.73.91,1.45,1.38,2.17.08.14.15.32.36.32h3Zm-10.1-1.91,2.91-4.7,2.89,4.7Z"/>
          <path class="cls-1" d="M88.27,7.19a2.3,2.3,0,0,0-1.89-2.05,7.44,7.44,0,0,0-1.63-.22H74.39c-.42,0-.53.11-.53.54V15.61c0,.43-.15,1,.08,1.25s.68,0,1.23.1.62-.16.62-.64V11.83l.34.22c2.2,1.36,4.43,2.68,6.6,4.09a4.22,4.22,0,0,0,2.93.82A8.54,8.54,0,0,0,87,16.88l-7.46-4.3a6.94,6.94,0,0,1,1.2-.1,45.2,45.2,0,0,0,4.94-.12h.08a2.56,2.56,0,0,0,2.51-2.6A11,11,0,0,0,88.27,7.19ZM86.42,9.91a1.55,1.55,0,0,1-1.5,1.33,41.69,41.69,0,0,1-4.47.1H76.21c-.28,0-.43,0-.42-.38V6.69c0-.24,0-.38.32-.38,2.85.06,5.7-.09,8.55.09A1.67,1.67,0,0,1,86.42,8h0a.81.81,0,0,1,0,.22A6.83,6.83,0,0,1,86.42,9.91Z"/><path class="cls-1" d="M69.88,16.75,62.8,5.52a1.9,1.9,0,0,0-1.73-.92,2.08,2.08,0,0,0-1.82,1.27q-3.37,5.35-6.76,10.69a.71.71,0,0,0-.18.44H54a.6.6,0,0,0,.57-.34c.46-.79,1-1.57,1.46-2.36A.59.59,0,0,1,56.6,14h8.94a.61.61,0,0,1,.57.33l1.51,2.39c.09.14.15.3.38.3h1.93A1.11,1.11,0,0,0,69.88,16.75ZM57,12.66l4-6.54,4,6.54Z"/>
          <path class="cls-1" d="M33.76,16.84Q30.21,11.16,26.6,5.48A1.8,1.8,0,0,0,25,4.61a2,2,0,0,0-1.84,1.1l-6.91,11c-.06.09-.18.17-.11.33h1.69a.61.61,0,0,0,.62-.34c.46-.8,1-1.57,1.46-2.37a.57.57,0,0,1,.57-.31h8.88a.64.64,0,0,1,.61.33c.48.8,1,1.57,1.48,2.36A.57.57,0,0,0,32,17h1.75C33.79,16.87,37.32,22.53,33.76,16.84ZM20.82,12.67l4.1-6.55,4,6.55Z"/>
          <path class="cls-1" d="M189.8,0h-.1a4.42,4.42,0,0,0-4.38,4.46v.06A4.5,4.5,0,1,0,189.8,0Zm.59,8.46a4.05,4.05,0,0,1-1.1,0A4,4,0,0,1,186,3.94a3.86,3.86,0,0,1,7.68,0A4,4,0,0,1,190.39,8.46Z"/>
          <path class="cls-1" d="M190.39,4.8c1-.42,1.2-.93,1.06-1.63s-.58-1-1.58-1h-1.8c-.27,0-.38,0-.38.36v4c0,.4.23.34.45.33s.5.07.5-.32a9.25,9.25,0,0,0,0-1.18c0-.5.21-.5.55-.41a1,1,0,0,1,.56.42l.55.81c.55.79.55.8,1.55.62A6.87,6.87,0,0,0,190.39,4.8ZM190.16,4c-.24,0-.47,0-.71,0l0,.11h-.1c-.21,0-.55.11-.61-.08a3.35,3.35,0,0,1,0-1c0-.07.07-.11.15-.11a7.84,7.84,0,0,1,1.37,0,.5.5,0,0,1,.36.56A.51.51,0,0,1,190.16,4Z"/>
        </g>
      </g>
    </g>
  </g>
</svg>
