<svg xmlns="http://www.w3.org/2000/svg" width="33.986" height="33.986" viewBox="0 0 33.986 33.986"><defs><style>.a{fill:#fff;}</style></defs><path class="a" d="M33.186,13.123l-2.612-.568a14.216,14.216,0,0,0-.841-2.027L31.18,8.279a1.016,1.016,0,0,0-.136-1.267L26.974,2.942a1.016,1.016,0,0,0-1.267-.136L23.458,4.252a14.216,14.216,0,0,0-2.027-.841L20.863.8A1.015,1.015,0,0,0,19.87,0H14.116a1.015,1.015,0,0,0-.992.8l-.568,2.612a14.216,14.216,0,0,0-2.027.841L8.279,2.806a1.016,1.016,0,0,0-1.267.136L2.942,7.012a1.016,1.016,0,0,0-.136,1.267l1.446,2.249a14.216,14.216,0,0,0-.841,2.027L.8,13.123a1.016,1.016,0,0,0-.8.992V19.87a1.016,1.016,0,0,0,.8.992l2.612.568a14.216,14.216,0,0,0,.841,2.027L2.806,25.707a1.016,1.016,0,0,0,.136,1.267l4.069,4.069a1.016,1.016,0,0,0,1.267.136l2.249-1.446a14.216,14.216,0,0,0,2.027.841l.568,2.612a1.015,1.015,0,0,0,.992.8H19.87a1.015,1.015,0,0,0,.992-.8l.568-2.612a14.216,14.216,0,0,0,2.027-.841l2.249,1.446a1.015,1.015,0,0,0,1.267-.136l4.069-4.069a1.016,1.016,0,0,0,.136-1.267l-1.446-2.249a14.216,14.216,0,0,0,.841-2.027l2.612-.568a1.016,1.016,0,0,0,.8-.992V14.116A1.016,1.016,0,0,0,33.186,13.123Zm-10.1,3.87A6.093,6.093,0,1,1,16.993,10.9,6.1,6.1,0,0,1,23.086,16.993Zm0,0"/></svg>