<svg xmlns="http://www.w3.org/2000/svg" xmlns:xlink="http://www.w3.org/1999/xlink" width="51" height="51" viewBox="0 0 51 51"><defs><style>.a{fill:#fff;}.b{fill:#f6903c;}.c,.d{stroke:none;}.d{fill:#f6903c;}.e{filter:url(#a);}</style><filter id="a" x="0" y="0" width="51" height="51" filterUnits="userSpaceOnUse"><feOffset dy="2" input="SourceAlpha"/><feGaussianBlur stdDeviation="3" result="b"/><feFlood flood-color="#818181" flood-opacity="0.161"/><feComposite operator="in" in2="b"/><feComposite in="SourceGraphic"/></filter></defs><g transform="translate(9 7)"><g class="e" transform="matrix(1, 0, 0, 1, -9, -7)"><g class="a" transform="translate(9 7)"><path class="c" d="M 16.5 32.40000152587891 C 12.25296020507812 32.40000152587891 8.260109901428223 30.7461109161377 5.256999969482422 27.74300003051758 C 2.253890037536621 24.73988914489746 0.6000000238418579 20.74703979492188 0.6000000238418579 16.5 C 0.6000000238418579 12.25296020507812 2.253890037536621 8.260109901428223 5.256999969482422 5.256999969482422 C 8.260109901428223 2.253890037536621 12.25296020507812 0.6000000238418579 16.5 0.6000000238418579 C 20.74703979492188 0.6000000238418579 24.73988914489746 2.253890037536621 27.74300003051758 5.256999969482422 C 30.7461109161377 8.260109901428223 32.40000152587891 12.25296020507812 32.40000152587891 16.5 C 32.40000152587891 20.74703979492188 30.7461109161377 24.73988914489746 27.74300003051758 27.74300003051758 C 24.73988914489746 30.7461109161377 20.74703979492188 32.40000152587891 16.5 32.40000152587891 Z"/><path class="d" d="M 16.5 1.200000762939453 C 12.4132194519043 1.200000762939453 8.571050643920898 2.791479110717773 5.681270599365234 5.681270599365234 C 2.791479110717773 8.571050643920898 1.200000762939453 12.4132194519043 1.200000762939453 16.5 C 1.200000762939453 20.5867805480957 2.791479110717773 24.42895126342773 5.681270599365234 27.31872940063477 C 8.571050643920898 30.20851898193359 12.4132194519043 31.79999923706055 16.5 31.79999923706055 C 20.5867805480957 31.79999923706055 24.42895126342773 30.20851898193359 27.31872940063477 27.31872940063477 C 30.20851898193359 24.42895126342773 31.79999923706055 20.5867805480957 31.79999923706055 16.5 C 31.79999923706055 12.4132194519043 30.20851898193359 8.571050643920898 27.31872940063477 5.681270599365234 C 24.42895126342773 2.791479110717773 20.5867805480957 1.200000762939453 16.5 1.200000762939453 M 16.5 0 C 25.61269950866699 0 33 7.387300491333008 33 16.5 C 33 25.61269950866699 25.61269950866699 33 16.5 33 C 7.387300491333008 33 0 25.61269950866699 0 16.5 C 0 7.387300491333008 7.387300491333008 0 16.5 0 Z"/></g></g><path class="b" d="M13.357,11.89a3.676,3.676,0,0,0-2.269.776L7.2,10.286a3.514,3.514,0,0,0,0-1.549l3.889-2.38a3.675,3.675,0,0,0,2.269.776A3.606,3.606,0,0,0,17,3.567a3.644,3.644,0,0,0-7.286,0,3.507,3.507,0,0,0,.086.774L5.912,6.721a3.676,3.676,0,0,0-2.269-.776,3.568,3.568,0,1,0,0,7.134A3.676,3.676,0,0,0,5.912,12.3L9.8,14.683a3.507,3.507,0,0,0-.086.774,3.644,3.644,0,1,0,3.643-3.567Z" transform="translate(7.963 7.181)"/></g></svg>