<svg xmlns="http://www.w3.org/2000/svg" width="35" height="35" viewBox="0 0 35 35"><defs><style>.a{fill:#fff;stroke:#275189;}.b{fill:#275189;}.c{stroke:none;}.d{fill:none;}</style></defs><g class="a"><circle class="c" cx="17.5" cy="17.5" r="17.5"/><circle class="d" cx="17.5" cy="17.5" r="17"/></g><path class="b" d="M13.357,11.89a3.676,3.676,0,0,0-2.269.776L7.2,10.286a3.514,3.514,0,0,0,0-1.549l3.889-2.38a3.675,3.675,0,0,0,2.269.776A3.606,3.606,0,0,0,17,3.567a3.644,3.644,0,0,0-7.286,0,3.507,3.507,0,0,0,.086.774L5.912,6.721a3.676,3.676,0,0,0-2.269-.776,3.568,3.568,0,1,0,0,7.134A3.676,3.676,0,0,0,5.912,12.3L9.8,14.683a3.507,3.507,0,0,0-.086.774,3.644,3.644,0,1,0,3.643-3.567Z" transform="translate(9 8)"/></svg>