<svg xmlns="http://www.w3.org/2000/svg" width="22.91" height="26.36" viewBox="0 0 22.91 26.36"><defs><style>.a{fill:#fff;}</style></defs><g transform="translate(-27.101 0)"><g transform="translate(27.101 0)"><path class="a" d="M42.691,14.244l2.636.523a2.342,2.342,0,1,0,.2-1l-2.7-.537a3.837,3.837,0,0,0-1.075-2.652l3.5-4.945a2.96,2.96,0,1,0-.831-.589l-3.467,4.9a3.842,3.842,0,0,0-4.87.764L31.53,7.172a2.346,2.346,0,1,0-.655.781l4.639,3.6a3.843,3.843,0,0,0,.955,4.611l-2.819,3.986a3.161,3.161,0,1,0,.777.665l2.9-4.095a3.846,3.846,0,0,0,3.146.071L43.9,21.868a2.662,2.662,0,1,0,.829-.593l-3.386-5A3.86,3.86,0,0,0,42.691,14.244Z" transform="translate(-27.101 0)"/></g></g></svg>