<svg xmlns="http://www.w3.org/2000/svg" width="17.382" height="20" viewBox="0 0 17.382 20"><defs><style>.a{fill:#f08e3c;}</style></defs><path class="a" d="M38.93,10.807l2,.4a1.777,1.777,0,1,0,.152-.758l-2.052-.407a2.911,2.911,0,0,0-.816-2.012L40.87,4.275a2.246,2.246,0,1,0-.63-.447L37.61,7.543a2.915,2.915,0,0,0-3.7.58L30.461,5.441a1.78,1.78,0,1,0-.5.592l3.52,2.733a2.916,2.916,0,0,0,.725,3.5L32.069,15.29a2.4,2.4,0,1,0,.59.5l2.2-3.107a2.918,2.918,0,0,0,2.387.054l2.607,3.85a2.02,2.02,0,1,0,.629-.45l-2.569-3.8A2.929,2.929,0,0,0,38.93,10.807Z" transform="translate(-27.101 0)"/></svg>