<svg xmlns="http://www.w3.org/2000/svg" width="18.242" height="16.096" viewBox="0 0 18.242 16.096"><defs><style>.a{fill:#F7903B;}</style></defs><g transform="translate(0 -41.115)"><g transform="translate(0 41.115)"><path class="a" d="M7.446,56a.352.352,0,0,1-.023-.17c.008-.046-.019-.084-.081-.113s-.093-.052-.093-.069-.045-.029-.134-.038L6.98,55.6H3.351a1.728,1.728,0,0,1-1.315-.591,2.019,2.019,0,0,1-.547-1.421V44.736a2.018,2.018,0,0,1,.547-1.421,1.728,1.728,0,0,1,1.315-.591H7.073a.334.334,0,0,0,.238-.082.429.429,0,0,0,.116-.245,2.278,2.278,0,0,0,.035-.3q.006-.132-.006-.333t-.012-.252a.4.4,0,0,0-.111-.283.346.346,0,0,0-.262-.119H3.351A3.111,3.111,0,0,0,.983,42.178,3.635,3.635,0,0,0,0,44.737v8.853a3.634,3.634,0,0,0,.983,2.559,3.111,3.111,0,0,0,2.368,1.063H7.074a.336.336,0,0,0,.238-.082.43.43,0,0,0,.116-.245,2.283,2.283,0,0,0,.035-.3q.006-.132-.006-.333T7.446,56Z" transform="translate(0 -41.115)"/><path class="a" d="M123.187,57.326l-6.329-6.841a.693.693,0,0,0-1.047,0,.806.806,0,0,0-.221.566v3.622h-5.212a.691.691,0,0,0-.524.239.805.805,0,0,0-.221.566v4.829a.805.805,0,0,0,.221.566.692.692,0,0,0,.524.239h5.212v3.622a.805.805,0,0,0,.221.566.693.693,0,0,0,1.047,0l6.329-6.841a.835.835,0,0,0,0-1.132Z" transform="translate(-105.166 -49.844)"/></g></g></svg>