<svg xmlns="http://www.w3.org/2000/svg" width="14.178" height="14.177" viewBox="0 0 14.178 14.177"><defs><style>.a{fill:#467d84;}</style></defs><g transform="translate(0.001)"><path class="a" d="M32.246,6.646a1.24,1.24,0,0,0,.863-.35l1.23.615a1.22,1.22,0,0,0-.015.151,1.246,1.246,0,0,0,2.492,0,1.231,1.231,0,0,0-.125-.534l1.668-1.668a1.231,1.231,0,0,0,.534.125,1.248,1.248,0,0,0,1.246-1.246,1.227,1.227,0,0,0-.062-.369l1.449-1.087a1.245,1.245,0,1,0-.556-1.036,1.227,1.227,0,0,0,.062.369L39.582,2.7a1.241,1.241,0,0,0-1.811,1.57L36.1,5.94a1.224,1.224,0,0,0-1.4.225l-1.23-.615a1.22,1.22,0,0,0,.015-.151,1.246,1.246,0,1,0-1.246,1.246Zm0,0" transform="translate(-30.142 0)"/><path class="a" d="M13.762,159.193h-.443v-8.778A.415.415,0,0,0,12.9,150H11.242a.415.415,0,0,0-.415.415v8.778H10v-6.286a.415.415,0,0,0-.415-.415H7.92a.415.415,0,0,0-.415.415v6.286H6.673V156.23a.415.415,0,0,0-.415-.415H4.6a.415.415,0,0,0-.415.415v2.963H3.351v-4.624a.415.415,0,0,0-.415-.415H1.274a.415.415,0,0,0-.415.415v4.624H.415a.415.415,0,1,0,0,.831H13.762a.415.415,0,1,0,0-.831Zm0,0" transform="translate(-0.001 -145.846)"/></g></svg>