<svg xmlns="http://www.w3.org/2000/svg" xmlns:xlink="http://www.w3.org/1999/xlink" width="30" height="30" viewBox="0 0 30 30"><defs><style>.a{fill:none;}.b{fill:#fdf4ed;}.c{clip-path:url(#a);}.d{fill:url(#b);}</style><clipPath id="a"><rect class="a" width="19" height="15"/></clipPath><linearGradient id="b" x1="0.5" x2="0.5" y2="1" gradientUnits="objectBoundingBox"><stop offset="0" stop-color="#f7903b"/><stop offset="1" stop-color="#f2a165"/></linearGradient></defs><g transform="translate(0 0)"><rect class="b" width="30" height="30" rx="8" transform="translate(0 0)"/><g transform="translate(6 8)"><g class="c"><path class="d" d="M18.028.77H1.2A1.176,1.176,0,0,0,0,1.919V12.257a1.181,1.181,0,0,0,1.2,1.149H8.091c-.264-.459-.587-1.006-.962-1.723H1.841V2.493H17.466v9.19h-.832v1.236a3.3,3.3,0,0,1-.048.487h1.442a1.181,1.181,0,0,0,1.2-1.149V1.919A1.176,1.176,0,0,0,18.028.77Zm.293,6.892a.575.575,0,1,1,.6-.574A.588.588,0,0,1,18.322,7.662Zm0,0" transform="translate(-0.292 -0.77)"/></g><path class="d" d="M22.79,10.94h-.067a.7.7,0,0,0-.716.68v.611H21.92V11.62a.7.7,0,0,0-.716-.68h-.067a.7.7,0,0,0-.712.68v.611h-.091V11.62a.7.7,0,0,0-.712-.68H19.55a.729.729,0,0,0-.509.2.665.665,0,0,0-.212.484v.611h-.043v-3.9a.706.706,0,0,0-.721-.685H18a.7.7,0,0,0-.707.685v5.973c-.192-.207-.361-.418-.514-.607-.346-.427-.615-.763-.918-.827a.734.734,0,0,0-.8.262.849.849,0,0,0,.062.859c.389.708,2.269,3.837,2.269,3.837.144.345.8,1.466,3,1.466h0a2.772,2.772,0,0,0,3.106-2.66V11.62a.66.66,0,0,0-.207-.482.724.724,0,0,0-.5-.2Zm0,0" transform="translate(-8.064 -4.489)"/></g></g></svg>