<svg width="42" height="34" viewBox="0 0 42 34" fill="none" xmlns="http://www.w3.org/2000/svg">
<path d="M39.129 1.91662e-07H2.609C1.91705 1.91662e-07 1.25344 0.274876 0.764158 0.764159C0.274876 1.25344 0 1.91705 0 2.609L0 26.086C0.00263394 26.7771 0.278356 27.4392 0.767068 27.9279C1.25578 28.4166 1.91786 28.6924 2.609 28.695H17.561C16.987 27.652 16.288 26.41 15.474 24.782H4V3.913H37.908V24.782H36.1V27.589C36.0929 27.9596 36.0595 28.3292 36 28.695H39.13C39.8211 28.6924 40.4832 28.4166 40.9719 27.9279C41.4606 27.4392 41.7364 26.7771 41.739 26.086V2.609C41.739 2.2663 41.6715 1.92695 41.5403 1.61035C41.4091 1.29374 41.2169 1.00609 40.9745 0.763805C40.7321 0.521524 40.4444 0.329367 40.1277 0.198311C39.8111 0.0672557 39.4717 -0.000131162 39.129 1.91662e-07ZM39.766 15.652C39.5089 15.652 39.2575 15.5758 39.0438 15.4329C38.83 15.2901 38.6633 15.087 38.565 14.8495C38.4666 14.6119 38.4408 14.3506 38.491 14.0984C38.5411 13.8462 38.665 13.6146 38.8468 13.4328C39.0286 13.251 39.2602 13.1271 39.5124 13.077C39.7646 13.0268 40.0259 13.0526 40.2635 13.151C40.501 13.2494 40.7041 13.416 40.8469 13.6298C40.9898 13.8435 41.066 14.0949 41.066 14.352C41.066 14.6968 40.929 15.0274 40.6852 15.2712C40.4414 15.515 40.1108 15.652 39.766 15.652Z" fill="#f2a165"/>
<path d="M32.5978 14.6507H32.4508C32.0403 14.6507 31.6464 14.813 31.3551 15.1022C31.0638 15.3915 30.8987 15.7842 30.8958 16.1947V17.5827H30.7078V16.1947C30.7049 15.7838 30.5395 15.3908 30.2477 15.1015C29.956 14.8122 29.5616 14.6501 29.1508 14.6507H29.0048C28.5953 14.6507 28.2026 14.8134 27.913 15.1029C27.6234 15.3925 27.4608 15.7852 27.4608 16.1947V17.5827H27.2608V16.1947C27.2608 15.7852 27.0981 15.3925 26.8085 15.1029C26.519 14.8134 26.1263 14.6507 25.7168 14.6507H25.5598C25.3552 14.6479 25.1522 14.6858 24.9625 14.7621C24.7727 14.8385 24.6 14.9518 24.4544 15.0954C24.3088 15.2391 24.1932 15.4102 24.1143 15.5989C24.0354 15.7876 23.9948 15.9901 23.9948 16.1947V17.5827H23.9008V8.72969C23.8968 8.31809 23.7309 7.92462 23.4389 7.6345C23.1469 7.34439 22.7524 7.18098 22.3408 7.17969H22.1948C21.7869 7.18519 21.3975 7.35077 21.1105 7.64071C20.8236 7.93066 20.662 8.32175 20.6608 8.72969V22.2987C20.2438 21.8287 19.8778 21.3487 19.5448 20.9217C18.7938 19.9517 18.2088 19.1897 17.5518 19.0437C17.2357 18.9443 16.8962 18.9484 16.5827 19.0554C16.2692 19.1624 15.998 19.3668 15.8088 19.6387C15.6625 19.9483 15.5982 20.2903 15.622 20.6319C15.6458 20.9736 15.757 21.3033 15.9448 21.5897C16.7898 23.1967 20.8698 30.3027 20.8698 30.3027C21.1828 31.0857 22.6128 33.6317 27.3918 33.6317C30.8668 33.6317 32.5258 31.9937 33.2918 30.6057C33.8063 29.6806 34.0958 28.6474 34.1368 27.5897V16.1947C34.1381 15.9916 34.0991 15.7902 34.0219 15.6023C33.9448 15.4143 33.8311 15.2436 33.6875 15.1C33.5439 14.9563 33.3731 14.8426 33.1852 14.7655C32.9973 14.6884 32.7959 14.6494 32.5928 14.6507H32.5978Z" fill="#f2a165"/>
</svg>
