<svg xmlns="http://www.w3.org/2000/svg" xmlns:xlink="http://www.w3.org/1999/xlink" width="45" height="45" viewBox="0 0 45 45"><defs><style>.a{fill:#9b9b9b;stroke:#fff;}.b{fill:#fff;}.c{stroke:none;}.d{fill:none;}.e{filter:url(#a);}</style><filter id="a" x="0" y="0" width="45" height="45" filterUnits="userSpaceOnUse"><feOffset dy="2" input="SourceAlpha"/><feGaussianBlur stdDeviation="3" result="b"/><feFlood flood-opacity="0.161"/><feComposite operator="in" in2="b"/><feComposite in="SourceGraphic"/></filter></defs><g transform="translate(9 7)"><g class="e" transform="matrix(1, 0, 0, 1, -9, -7)"><g class="a" transform="translate(9 7)"><rect class="c" width="27" height="27" rx="13.5"/><rect class="d" x="0.5" y="0.5" width="26" height="26" rx="13"/></g></g><g transform="translate(-4.339 3)"><path class="b" d="M21.905,8.042V6.574a4.074,4.074,0,1,0-8.147,0V8.042A2.138,2.138,0,0,0,11.8,10.189v5.147A2.156,2.156,0,0,0,13.963,17.5h7.753a2.156,2.156,0,0,0,2.163-2.163V10.189A2.152,2.152,0,0,0,21.905,8.042Zm-3.126,6.6a.244.244,0,0,1-.237.3H17.105a.244.244,0,0,1-.237-.3l.474-1.863a1.135,1.135,0,0,1-.679-1.042,1.153,1.153,0,1,1,1.626,1.042Zm1.058-6.616H15.826V6.589a2.005,2.005,0,0,1,4.011,0Z"/></g></g></svg>