<svg xmlns="http://www.w3.org/2000/svg" width="20" height="18" viewBox="0 0 20 18"><defs><style>.a{fill:#585858;}</style></defs><g transform="translate(-31.812 -26.584)"><path class="a" d="M48.8,27.531l-14.769.223a2.063,2.063,0,0,0-2.234,1.83V43.7a2.063,2.063,0,0,0,2.234,1.83H49.561A2.062,2.062,0,0,0,51.8,43.7V29.585C51.8,28.574,50.032,27.531,48.8,27.531ZM38.171,44c0,.223-.24.4-.535.4H33.911c-.3,0-.536-.181-.536-.4V41.184a.484.484,0,0,1,.536-.4h3.724a.484.484,0,0,1,.535.4Zm6.006,0c0,.223-.239.4-.535.4H39.917c-.3,0-.536-.181-.536-.4V41.184c0-.224.24-.4.536-.4h3.724c.3,0,.535.181.535.4V44Zm6.006,0c0,.223-.239.4-.535.4H45.923c-.3,0-.535-.181-.535-.4V41.184a.483.483,0,0,1,.535-.4h3.724c.3,0,.535.181.535.4V44ZM38.171,39.354a.484.484,0,0,1-.535.4H33.911a.484.484,0,0,1-.536-.4V36.541c0-.223.24-.4.536-.4h3.724a.484.484,0,0,1,.535.4Zm6.006,0a.484.484,0,0,1-.535.4H39.917a.484.484,0,0,1-.536-.4V36.541c0-.223.24-.4.536-.4h3.724c.3,0,.535.181.535.4v2.813Zm6.006,0a.484.484,0,0,1-.535.4H45.923a.484.484,0,0,1-.535-.4V36.541c0-.223.239-.4.535-.4h3.724c.3,0,.535.181.535.4v2.813ZM38.171,34.648c0,.224-.24.4-.535.4H33.911c-.3,0-.536-.181-.536-.4V31.835a.484.484,0,0,1,.536-.4h3.724a.484.484,0,0,1,.535.4Zm6.006,0c0,.224-.239.4-.535.4H39.917c-.3,0-.536-.181-.536-.4V31.835c0-.223.24-.4.536-.4h3.724a.483.483,0,0,1,.535.4v2.813Zm6.006,0c0,.224-.239.4-.535.4H45.923c-.3,0-.535-.181-.535-.4V31.835a.484.484,0,0,1,.535-.4h3.724a.483.483,0,0,1,.535.4v2.813Z" transform="translate(0.017 -0.947)"/></g></svg>