<svg xmlns="http://www.w3.org/2000/svg" width="10.65" height="18.849" viewBox="0 0 10.65 18.849"><defs><style>.a{fill:#f6903c;}</style></defs><path class="a" d="M29.419,10.575h-1.9a1.626,1.626,0,0,1-1.647-1.468A1.58,1.58,0,0,1,27.455,7.42h2.063a1.577,1.577,0,0,1,1.528,1.19.506.506,0,0,0,.476.377h1.746a.5.5,0,0,0,.5-.556,4.289,4.289,0,0,0-3.928-3.69V3a.491.491,0,0,0-.5-.5H27.634a.491.491,0,0,0-.5.5V4.722A4.288,4.288,0,0,0,23.17,9.246a4.362,4.362,0,0,0,4.385,4.028h1.9a1.578,1.578,0,1,1,.04,3.155H27.455a1.577,1.577,0,0,1-1.528-1.19.506.506,0,0,0-.476-.377H23.705a.5.5,0,0,0-.5.556,4.289,4.289,0,0,0,3.928,3.69v1.746a.491.491,0,0,0,.5.5H29.34a.491.491,0,0,0,.5-.5V19.126A4.288,4.288,0,0,0,33.8,14.6,4.362,4.362,0,0,0,29.419,10.575Z" transform="translate(-23.162 -2.5)"/></svg>