<svg xmlns="http://www.w3.org/2000/svg" width="30" height="30" viewBox="0 0 30 30"><defs><style>.a{fill:#ededed;}.b{fill:#585858;}</style></defs><g transform="translate(-1287 -390)"><circle class="a" cx="15" cy="15" r="15" transform="translate(1287 390)"/><path class="b" d="M11.657,7.383A10.116,10.116,0,0,0,2.25,13.724a10.148,10.148,0,0,0,18.814,0A10.116,10.116,0,0,0,11.657,7.383Zm0,10.57a4.229,4.229,0,1,1,4.275-4.229A4.264,4.264,0,0,1,11.657,17.953Zm0-6.765a2.537,2.537,0,1,0,2.566,2.537A2.56,2.56,0,0,0,11.657,11.188Z" transform="translate(1290.344 391.276)"/></g></svg>